<svg xmlns="http://www.w3.org/2000/svg" width="122.332" height="56" viewBox="0 0 122.332 56">
  <g id="logo" transform="translate(-164.865 -259.776)">
    <g id="icon" transform="translate(164.865 259.776)">
      <path class="path-c" d="M254.466,324.845c-.206.06-.311.1-.311.1a6.064,6.064,0,0,0,.527-.426c.232-.216.342-.395.234-.337s-.371.343-.5.378a.7.7,0,0,0-.241.126,4.39,4.39,0,0,0,.494-.554c.138-.213.247-.3.153-.316s-.336.308-.421.411a1.031,1.031,0,0,1-.163.163,3.119,3.119,0,0,0,.391-.607c.029-.141-.015-.2-.108-.055s-.1.139-.194.271a1.365,1.365,0,0,1-.19.217,4.311,4.311,0,0,0,.314-.682c.017-.144-.064-.194-.126-.026s-.142.342-.142.342.144-.434.1-.512-.14.222-.14.222.086-.332-.005-.257a.83.83,0,0,0-.143.347s.03-.181-.055-.158-.149.232-.149.232-.058-.059-.1-.007-.022.083-.08.08-.092.108-.132.066.007-.038-.1-.052-.053-.058-.124-.025-.167-.032-.21-.007-.044-.022-.085-.03a.449.449,0,0,0-.121,0s-.039-.127-.094-.044-.036.127-.109.064-.085-.089-.154-.071-.043.025-.131.008a.094.094,0,0,0-.124.077c-.012.044-.061.034-.113.031s-.051.01-.072.06-.068.014-.125.009-.086.1-.086.1a.164.164,0,0,0-.093-.024c-.054,0,0-.121-.047-.089s-.054.137-.107.1a1.952,1.952,0,0,1,.06-.686c.044-.246.061-.444.015-.374s-.072.121-.075.053.034-.255-.008-.143-.012-.022-.085.124a.963.963,0,0,0-.142.389c.019.07-.088-.045-.111.072s-.09.324-.132.53-.064.3-.064.3-.062-.067-.152.385-.216,1.172-.255,1.379-.011.326-.042.506-.021.238-.049.246-.058.07-.009.079a.27.27,0,0,0,.2-.041c.08-.052.181-.018.223-.2l.041-.179c.115.023.283-.119.5.1a7.326,7.326,0,0,1,.482.792c.165.208.01,0,.273.148s.186.212.668.226.813-.067.634-.088-.5-.1-.25-.05.339-.12.19-.136-.491-.084-.491-.084.346,0,.352-.144-.24-.015-.31-.016.24-.174.2-.228-.353.112-.353.112.354-.313.245-.314a.287.287,0,0,0-.18.065s.212-.387.139-.382-.143.161-.143.161.1-.3.067-.316-.036.02-.046.045c.016-.043.042-.129.005-.165a.083.083,0,0,0-.1-.016s-.019-.071-.073-.068.037-.079-.048-.089-.075-.055-.075-.055.3-.189.758-.421a9.509,9.509,0,0,1,1.052-.45c.386-.151.557-.251.454-.272A1.194,1.194,0,0,0,254.466,324.845Z" transform="translate(-206.005 -290.046)" fill="#000000" fill-rule="evenodd"/>
      <path class="path-c" d="M214.861,288.188c-.322.008-1.122-.067-1.122-.067,0-.662,1.263-.3,1.553-.487a.387.387,0,0,0-.171-.741c-2.509-.115-2.458,1.135-2.524,1.211-.439.04-2.192-.009-2.192-.009-.062-.135.047-.249.065-.314.1-.36,1.842-.707,1.7-1.308-.043-.2-.27-.251-.447-.235a3.6,3.6,0,0,0-2.414,1.488,2.8,2.8,0,0,1-.2.568s-1.379-.02-1.947-.01a16.487,16.487,0,0,0-1-5.272.1.1,0,0,1,.077.016c.077.062.113.228.178.313s.315.275.247-.127a3.126,3.126,0,0,1-.095-.639c.008-.184.155-.108.155-.108a.365.365,0,0,1,.273-.331,16.979,16.979,0,0,1,1.359,1.482c.206.263.438.439.641.713.191.258.551.313.751.56.072.089.354.611.487.229.095-.278-.229-.457-.328-.6s-.077-.225-.125-.4a1.024,1.024,0,0,0-.251-.43c-.11-.129.068-.119.024-.286.052-.034.094-.084.088-.09.126.13.217.13.407.181,0,.007-.008.072-.008.089a.489.489,0,0,1,.684.246c.055-.051.129-.058.189-.149.019.035.052.065.072.109.033-.055.084-.107.121-.159,0-.006.047-.007.045,0a1.163,1.163,0,0,0-.011.171c.037-.063.092-.118.13-.179,0,0,.034.045.032.063.057-.063.129-.091.189-.189.03.389.463.344.667.007l.053-.06c.205-.383-.474-.288-.761-.374a2.379,2.379,0,0,1-1.076-.554c-.143-.141-.972-.95-1.185-.8a1.707,1.707,0,0,1-.406-.56l.074.071c-.081-.128-.376-.9-.531-1.249a5.2,5.2,0,0,0-1.343-2.072,8.033,8.033,0,0,0-1.331-1.179c-.154-.188-.391-.487-.469-.553a1.031,1.031,0,0,0-.133.232c-.029-.015-.057-.031-.084-.046-.135-.16-.238-.393-.373-.483a2.083,2.083,0,0,0-.187.155c-.076-.039-.152-.075-.229-.108a1.168,1.168,0,0,0-.265-.347c-.071.06-.144.125-.221.178-.129-.083-.169-.3-.241-.42-.1.06-.175.152-.27.216-.244-.158-.133-.334-.1-.564-.115,0-.253.1-.379.033.008-.1.055-.3-.021-.371s-.152-.026-.235-.038a.39.39,0,0,0-.071-.122c.177-.114.36.019.538.025a.8.8,0,0,0,.542-.168,1.05,1.05,0,0,0,.405-.722.578.578,0,0,0,.079-.175.3.3,0,0,0,.014-.147v0c-.009-.035-.023-.068-.038-.125a.857.857,0,0,1-.09.223c-.045.035-.089.068-.135.1a.2.2,0,0,1-.041-.1.857.857,0,0,1-.239.259.307.307,0,0,1-.035.014.191.191,0,0,1-.028-.16c-.141.011-.247.157-.375.213h0c-.083-.051.054-.151.038-.237-.112.016-.155.079-.249.124a.171.171,0,0,1-.089.02l-.038-.014c-.019-.022-.011-.063.045-.12a.69.69,0,0,0-.245.054.825.825,0,0,0-.152-.027c-.575-.032-.666.417-.778.886a1.415,1.415,0,0,0,.428,1.424c1.313,1.2,1.715.8,2.35,1.816.176.286-.383.282-.606.482-.118.108-.021.429.086.727-.213-.273-.428-.542-.649-.8a18.881,18.881,0,0,0-2.773-2.724,15.826,15.826,0,0,0-1.379-.97,2.763,2.763,0,0,1,.277-.228c.25-.224.526-.418.78-.639s.538-.439.795-.676c.192-.179.389-.4.568-.566a.654.654,0,0,0,.114-.175,3.829,3.829,0,0,1,.316-.407,2.1,2.1,0,0,0,.319-.586c.076-.192.175-.362.237-.564a4.132,4.132,0,0,1,.323-.9,7.035,7.035,0,0,1-.738.5,7.858,7.858,0,0,0-.812.79c-.417.413-.817.856-1.2,1.3a4.212,4.212,0,0,0-.6.8c-.022.043-.037.093-.057.138.046-.144.093-.284.127-.365.1-.244.573-.889.742-1.17a5.8,5.8,0,0,0,.691-1.547.551.551,0,0,0,.492-.388.3.3,0,0,1,.2.28c.042.022.132-.074.155-.1a.368.368,0,0,0,.07-.215.62.62,0,0,0-.178-.368.493.493,0,0,1,.226-.208c.077-.028.179-.113.279-.115s.157.108.241.14a1.077,1.077,0,0,0-.23-.7.765.765,0,0,0-.47-.253c-.144-.07-.248,0-.374.058a1.788,1.788,0,0,0,.126-.486,1.356,1.356,0,0,0-.043-.247,1.885,1.885,0,0,0-.061-.264c-.074-.2-.248-.044-.317.066a1.7,1.7,0,0,0-.177.5c0,.122,0,.366,0,.366a1.27,1.27,0,0,0-.528-.212c-.25.005-.436.282-.528.372s-.09.206-.143.326a.214.214,0,0,0,.1-.03.248.248,0,0,1,.162-.013.663.663,0,0,1,.283.164,1.289,1.289,0,0,1,.161.2s-.264.119-.331.156a.675.675,0,0,0-.2.164.542.542,0,0,0-.06.275c0,.069.044.193.133.21a1.138,1.138,0,0,1,.355-.3.853.853,0,0,0-.014.17.486.486,0,0,0,.076.187.823.823,0,0,0,.135.127.255.255,0,0,0,.148.081.434.434,0,0,1,.082-.155,1.38,1.38,0,0,0,.134-.136l0,.006,0,.025a3.116,3.116,0,0,1-.211.844,6.785,6.785,0,0,1-.7,1.251,6.114,6.114,0,0,0-.626,1.043c-.037.089-.069.179-.1.271.111-.562.35-1.109.5-1.658a2.326,2.326,0,0,0,.12-1.287c-.069-.195-.323-.264-.48-.368.191.311-.256.875-.327,1.155a8.7,8.7,0,0,0-.313,3.063c0,.023,0,.046.007.07a14.331,14.331,0,0,0-1.54-.8c.063.294-1.215-.077-2.412-.2l-.051-.006a.813.813,0,0,1-.052-.167c.1.081.15.077.395.122s.261-.066.307-.215-.037-.207-.063-.446.2-.363.452-.9a1.188,1.188,0,0,0-.069-1.291,18.758,18.758,0,0,1-1.583-2.3c-.531-1.009.031-1.025-.006-1.228s.083-.27.2-.4.06.028.224-.032.154-.1.384.025.113-.007.41-.172a.253.253,0,0,0,.116-.4s.27-.01.808-.085a2.3,2.3,0,0,1,.892.051c.333.028.251.077.176-.188a4.081,4.081,0,0,0-.363-.744,1.112,1.112,0,0,0,.406.345.468.468,0,0,0,.482-.079,5.891,5.891,0,0,0,1.686.334,4.306,4.306,0,0,0,1.371-.36c.273-.125.23-.324.1-.293l-.716.169a2.251,2.251,0,0,0,.5-.345c.245-.219.435-.457.419-.555-.027-.147-.1-.121-.213-.026a2.672,2.672,0,0,0,.512-.58,2.047,2.047,0,0,0-.458-2.066c-.46-.437-.432-.8-.237-.879s.264-.072.207-.227-.313-.22-.353-.379-.365.275-.486.818a1.372,1.372,0,0,0,.341,1.221,1.082,1.082,0,0,1,.206.836c-.008.274-.191.3-.44.354s-.153.111-.214.252-.155.1-.319-.019-.111-.111-.169-.046a.155.155,0,0,1-.252.009c-.109-.1-.147.091-.188.033s-.033-.076-.248-.026-.113.021-.189-.117-.1-.041-.224.01-.069-.02-.093-.173-.176.036-.2-.037-.023-.036-.073-.025-.073.023-.111-.068-.028-.05-.028-.05-.124.023-.124-.029-.019-.043-.114-.021-.146-.073-1.011-.812a2.982,2.982,0,0,0-2.867-.244,2.805,2.805,0,0,1-1.718.09c-.533-.126-1.1.134-1.916.852a4.07,4.07,0,0,1-2.315,1.029,9.67,9.67,0,0,1-1.872.149,3.12,3.12,0,0,0-1.213.81c-.662.66-1.576,1.316-1.69,2.075-.068.457-.32.738-.364,1.1a16.6,16.6,0,0,0,.089,2.285,7.208,7.208,0,0,0,.32,1.625,11.817,11.817,0,0,1,.222,1.386,4.545,4.545,0,0,1,.013.5c.016.1.088.106.171-.024l-.005.018a6.845,6.845,0,0,0-.076,1.183,3.21,3.21,0,0,0,.127.674c.05.209-.179.787-.091,1.031.015.041.055.051.1.05-.276.162-.551.329-.8.5a6.688,6.688,0,0,0-1.279,1.032c-.267.339.157.041.523-.171a3.979,3.979,0,0,1,.474-.256,15.592,15.592,0,0,1,2.135-1.28c.868,2.2,1.834,4.339,2.834,6.461q.747,1.6,1.532,3.171c-.12.064-.235.137-.356.2a29.041,29.041,0,0,1-3.527,1.564,26.357,26.357,0,0,1-3.679,1.075c-.255-.726-.48-1.463-.669-2.211a16.786,16.786,0,0,1-.107-8.573,11.7,11.7,0,0,0-1.059,4.312,18.146,18.146,0,0,0,.3,4.472,21.572,21.572,0,0,0,.531,2.188,18.754,18.754,0,0,1-3.834.256c-.01-.214-.017-.429-.017-.646a12.639,12.639,0,0,1,.721-4.205c.057-.35.124-.7.208-1.046-.286.556-.515,1.094-.7,1.571a27.972,27.972,0,0,1,1.015-3.129c.572-1.364.712-1.677.482-1.588a6.111,6.111,0,0,0-1.131,1.1c-.5.726-.221-.458-.919.753a14.972,14.972,0,0,1,1.162-2.234,4.135,4.135,0,0,0-.731,1.222c-.311.633-.541,1.222-.516.852a20.275,20.275,0,0,1,1.455-2.73,5.828,5.828,0,0,0-1.077,1.554c-.4.725-.687,1.433-.746,1.324a9.173,9.173,0,0,1,.784-1.495c.351-.584.709-1.1.666-1.253a6.922,6.922,0,0,0-.816,1.281c.708-1.436,1.44-2.456,1.67-2.89s-.072-.319-1.062.831a20,20,0,0,1,2.438-2.678l-.008,0c-.306.267-.766.7-1.118,1.059.318-.348.646-.686.992-1.005-.1.045-.2.1-.306.157a10.049,10.049,0,0,0-1.029,1.009q.415-.473.868-.916a8.868,8.868,0,0,0-.9.634,13.561,13.561,0,0,0-2.511,2.919,16.907,16.907,0,0,0-1.356,3.078,7.923,7.923,0,0,1-2.727-.874c-.41-.263-.637-.7-1.116-.795a6.488,6.488,0,0,1-.163-2.378,1.928,1.928,0,0,0,.254-.292c-.034-.342.021-.579-.162-.768a.092.092,0,0,0-.024-.137c.1-.415.339-.584.439-1-.061-.033-.085-.311-.154-.184.054-.059.028-.579.164-.646-.037-.133-.332-.168-.157-.381.149.025.1.127.068.218.357.024-.113-.324.235-.234.043-.141-.211-.091-.218-.018-.135-.151.3-.375.145-.59-.254.251-.763-.062-.773.489-.137-.2-.483.3-.715-.068-.021.245.065.262-.1.478-.592.436-.759,1.641-1.442,1.917A3.056,3.056,0,0,1,167,278.52c.148.684-.707,1.506-.961,2.415-.022.088.061.235.028.333a17.587,17.587,0,0,0-.691,1.678c-.056.241.07.589.035.914-.009.1-.1.184-.1.284a4.785,4.785,0,0,1,.011.776c-.02.077-.159.175-.17.261a7.259,7.259,0,0,1-.066,1.393c-.027.073-.153.174-.17.258-.07.381.127.81-.048,1.142.363.208.368-.56.56-.116.051-.452.224-.433.555-.505-.029-.216.2-.529.12-.729.344-.161.429-.8.832-.855.289.005-.068.255.111.3.23-.06,0-.356-.135-.436a3.347,3.347,0,0,1,.763-1.071c.306-.374.485-.626.785-.935a2.361,2.361,0,0,1,.836-.66c.505-.253.706-.151,1.467-.17.277-.006.562-.121.779-.1a7.923,7.923,0,0,1,2.262.854,17.331,17.331,0,0,0-.6,6c.023.315.065.63.107.944-.141.1-.58.376-.648.408s-.319.2-.356.209a1.223,1.223,0,0,0-.208.074,4.284,4.284,0,0,0-.493.428,3.1,3.1,0,0,1-.474.409.546.546,0,0,0-.178.135l-.016,0s0-.064-.006-.053-.07.035-.046.011.017-.078.014-.063-.059.045-.041.015-.01-.083-.017-.065-.052.056-.036.034.016-.076.007-.059-.057.041-.041.026-.012-.083-.021-.066-.055.062-.043.034a.338.338,0,0,0,0-.115l-.018.049-.022-.016,0-.051s-.048.063-.033.033a.146.146,0,0,0,0-.085l-.047.045.01-.042-.025.014v-.05s-.013,0-.029.043-.039,0-.027-.05-.018-.125-.011-.067-.068.067-.087.081-.034-.005-.022-.032a.224.224,0,0,0,.015-.073c-.02.023-.048.038-.032-.007a.122.122,0,0,0,0-.092.216.216,0,0,1-.079.128c-.022.017-.018-.036-.027-.028a.1.1,0,0,1-.056.027c-.021,0-.009-.024.032-.047s.061-.1.048-.089a1.686,1.686,0,0,1-.142.1c-.038.024-.1.045-.062.015s.053-.082.03-.059-.1.067-.076.042.022-.032-.006-.017-.046.022-.033,0a.957.957,0,0,1,.115-.076,1.054,1.054,0,0,0-.1.053.257.257,0,0,1-.1.03l.031-.015h-.06l.034-.021-.046.011.022-.019-.033.008.013-.015-.034.006.018-.014-.039.008.024-.019-.037.006.025-.01-.042,0,.011-.013-.032,0,.015-.018-.028,0,.009-.013-.031,0,.023-.016-.037.007.014-.015-.027.007.015-.018-.031.014.013-.018-.034.012.02-.019h-.04l.027-.012-.045,0,.021-.016-.033.009.024-.02-.055.011.025-.016h-.041l.012-.016h-.029l.016-.008-.042,0,.018-.011h-.05l.027-.01h-.055l.022-.011-.034,0,.014-.014-.026,0,.013-.01-.05.006.022-.016-.046.007s.045-.026.035-.023l-.059.007.018-.024-.055.007.02-.024-.044.008.024-.017-.048.006,0-.018-.036,0a5,5,0,0,0-1.665-.475h0c-.069-.008-.15-.019-.168-.024l-.043-.012c0-.04-.04-.475-.04-.475a.287.287,0,0,0-.024-.281c-.026-.056-.069-.033-.069-.033-.02-.142-.086-.116-.116-.1a.246.246,0,0,0-.073.064c-.01-.033-.063-.014-.085-.01s-.1.085-.125.12a1.718,1.718,0,0,1-.2.284c-.068.05-.169.4-.264.327a1.6,1.6,0,0,0-.5-.087c-.091-.015-.076.025-.076.025s.005.018.064.033a.767.767,0,0,1,.276.174.72.72,0,0,0,.18.136.073.073,0,0,0,0,.05,3.851,3.851,0,0,0-.491.06.224.224,0,0,0-.076.108c0,.018.027.009.048.015a4.694,4.694,0,0,1,.513.121,1.122,1.122,0,0,0,.229.1.991.991,0,0,0,.353.077c.079,0,.22,0,.366.009h0l.019,0a.262.262,0,0,1,.126.054s-.017-.036-.008-.047h.015a1.108,1.108,0,0,1,.105.07.19.19,0,0,1-.011-.058.322.322,0,0,0,.035,0c.046.033.076.052.076.052a.106.106,0,0,1,.014-.036l.03.005a.184.184,0,0,0,.08.054s-.021-.038.019-.03l.035.006a2.923,2.923,0,0,1,.725.281c.051.031.218.133.221.207s.006.071.006.071.025-.069.037-.045.042.111.02.136c0,0,.041-.058.05-.03s.032.125.007.157c0,0,.026-.039.04-.017a.1.1,0,0,1,0,.1.361.361,0,0,0-.028.173s.034-.115.061-.084a.311.311,0,0,1-.021.216.453.453,0,0,0-.018.22s.017-.05.033-.054-.006.107-.013.134a.309.309,0,0,0-.014.119c.006.029.027.166.031.2a3.238,3.238,0,0,0,.057.493s.049.56.063.618.052.165.014.231a.142.142,0,0,0-.018.049l.012-.022c.022-.029.032-.063.041-.047a1.638,1.638,0,0,1,.042.167c.005.02.128.655.141.692,0,.007.013.035.027.078a.381.381,0,0,0,0,.153c.023.073.036.14.036.14a.2.2,0,0,0,0,.132s.02-.081.052-.085-.019.143.005.2c0,0,.005-.084.035-.083s.046.064.071.082a1.412,1.412,0,0,0,.09.178,3.39,3.39,0,0,0,.656.761,1.666,1.666,0,0,0,.242.105c.046,0,.108.05.163.048s.124.025.169.013a1.06,1.06,0,0,1,.135-.018.175.175,0,0,1,.1.01.2.2,0,0,0,.107-.011c.033-.008-.044,0-.061-.034s.03-.025.057-.031a.72.72,0,0,1,.207-.036l.047.009-.187-.062a.405.405,0,0,0,.109.015c.037,0,.111-.045.152-.033s-.045-.055-.089-.049.066-.028.089-.022.036-.054.077-.043.1.03.086,0-.024-.061,0-.061.075-.013.1,0,.065.017.1.025,0-.073-.03-.081.062,0,.082,0,.033,0,.07-.006.111.045.173.046a.613.613,0,0,0,.154-.029.322.322,0,0,1-.173-.029l-.06-.041.1,0a.353.353,0,0,1,.16.045c.025.02.019-.031,0-.054a.348.348,0,0,0,.11.038c.027-.007.072-.047.1-.037a.244.244,0,0,1,.084.045c.027.021.072.005.065-.011s.069.05.1.065.051.048.086.05a.345.345,0,0,1,.116.06.787.787,0,0,0,.145.09,1.483,1.483,0,0,1,.165.06c.037.012.105.111.184.092s1.115-.187,1.4-.2.287,0,.337-.011a.172.172,0,0,0,.1-.053.634.634,0,0,1,.15-.05,16.854,16.854,0,0,0,1.445,2.114c.076-.046-.083-.379.3.031.661.721,1.225,1.41,1.858,2.046-.075-.012-.135.01-.194.126-.088.174.17.47.271.646s-.117.7-.182.822a2.293,2.293,0,0,0-.187.441c-.052.183-.154.278-.442.445a.926.926,0,0,0-.378.511l-.726-.432s0-.062.037-.314a2.64,2.64,0,0,0-.15-1.078c-.1-.175-.18-.137-.425-.43s-.149-.311-.346-.506a3.665,3.665,0,0,1-.3-.332.938.938,0,0,0-1.018.008,2.415,2.415,0,0,1-.383.312c-.248.162-.133.028-.238.1s-.113.165-.241.325a3.9,3.9,0,0,1-.935.532,2.689,2.689,0,0,0-.776,1.1,1.936,1.936,0,0,0-.155.461,1.673,1.673,0,0,0,.225-.223,5.714,5.714,0,0,1,.62-.5,4.366,4.366,0,0,1,.554-.183,2.062,2.062,0,0,1,.522.047c.126.017.126.072.126.072a3.917,3.917,0,0,0-.618.442c-.189.192-.129.226-.129.226a4.126,4.126,0,0,1,.6-.059,1.278,1.278,0,0,1,.432.226s.111.115.105.155.008.392,0,.43a2.639,2.639,0,0,0-.077.256.566.566,0,0,1-.052.2.993.993,0,0,0-.058.289,2.146,2.146,0,0,0,.016.442,2.472,2.472,0,0,0-.608.208.545.545,0,0,0-.228.468.567.567,0,0,0,.041.319s.153-.221.256-.361a.666.666,0,0,1,.427-.245,1.234,1.234,0,0,1,.2-.026l.175.181a1.148,1.148,0,0,0-.548.243.552.552,0,0,0-.121.552c.048.22.065.161.065.161a1.142,1.142,0,0,1,.086-.1c.048-.047.029-.025.381-.077a.77.77,0,0,0,.48-.214c.148-.085-.162.376-.141.682s.083.434.255.549a2.974,2.974,0,0,1,.578.644,3.953,3.953,0,0,0,.521.642,1.416,1.416,0,0,0,.795.444c.253.086.762.05,1.225.2a8.93,8.93,0,0,1,1.08.468s.767.436,1.341.748.5.279.745.269a10.216,10.216,0,0,1,1.118.125,5.018,5.018,0,0,1,.723.227,1.907,1.907,0,0,0,.7.19c.2,0,.464-.071.565-.069a10.758,10.758,0,0,0,1.291-.329,2.958,2.958,0,0,0,.746-.487,1.72,1.72,0,0,0,.279-.442c.1-.21.407-.858.407-.858a3.2,3.2,0,0,0,.214-.626c.087-.366.044-.823.093-.926a.852.852,0,0,1,.368-.387c.272-.188.209-.389.285-.629s-.06-.318-.072-.419.042-.166.06-.274-.045,0-.1.034-.031.072-.06.127-.061,0-.058-.1-.035.024-.063.1a.43.43,0,0,1-.059.116c-.013.017-.057-.059-.049,0a.85.85,0,0,1-.082.276,1.288,1.288,0,0,1-.2.356,1.254,1.254,0,0,0-.21.55,3.025,3.025,0,0,0-.01.7,1.86,1.86,0,0,1-.255.765s.044-.082-.081-.424-.344-1.151-.344-1.151a.941.941,0,0,1,.1-.318c.083-.163.356-.2.6-.3s.207-.154.2-.509a1.186,1.186,0,0,1,.163-.771c.132-.174.516-.256.591-.409a.138.138,0,0,0-.016-.144,17.131,17.131,0,0,0,4.222-.034c-.074-.044-.113-.087.147-.136.229-.036.481-.077.745-.124.1.313.156.535.184.666q.1.376.15.591c.022.11.038.218.051.325l-.071.014c-.05.011-.11.029-.2.056a1.345,1.345,0,0,0-.135.041c-.2.041-.294.22-.276.54-.1-.135-.2-.191-.3-.173a.147.147,0,0,0-.12.106c-.019.059-.033.111-.049.164a.335.335,0,0,0-.127-.009.939.939,0,0,0-.2.142.067.067,0,0,1-.022-.034v-.123l-.214.043a.256.256,0,0,0-.152.108l-.026-.107c.007-.025.009-.046,0-.052-.241.064-.377.1-.4.108s-.056.008-.065,0a.428.428,0,0,0,.041-.27,3.963,3.963,0,0,0-.414.139l-.075.015a.321.321,0,0,0-.107-.076l-.213.043c-.231.052-.327.16-.289.335a.343.343,0,0,1-.113.048,1.675,1.675,0,0,0-.2.341l-.056-.034a.45.45,0,0,0-.291.505c.029.147.067.223.106.241l.147-.03a.422.422,0,0,0-.034.256.411.411,0,0,0,.38.332.753.753,0,0,0-.116.324c.018.095.075.13.156.113a.112.112,0,0,0,.07-.027l.048-.008c.025-.006.039,0,.041.016a.574.574,0,0,1,0,.075.552.552,0,0,0,0,.088c.012.062.069.086.152.068a.114.114,0,0,0,.059-.026.048.048,0,0,0,.015.024.11.11,0,0,0-.008.026.244.244,0,0,0,0,.111.88.88,0,0,0,.131.221c.032.01.062.018.092.031.018-.088.046-.132.065-.136s.028-.016.03-.022l0-.01c0-.008,0-.014.016-.016a.12.12,0,0,0,.045-.061c.045.075.075.13.1.166a.913.913,0,0,1,.2-.114c.024,0,.046-.006.048,0a.331.331,0,0,0,.252.236c.084.023.124.038.13.037.022,0,.022-.01.019-.018s.008-.012.028-.017.062.012.128.053a.376.376,0,0,0,.131.066.367.367,0,0,0-.171.381.154.154,0,0,0,.1.121l.149.044a.447.447,0,0,0-.048.182.241.241,0,0,0,.079.1.165.165,0,0,0,.137.046.364.364,0,0,0,.26-.193.221.221,0,0,0,.136-.089,1.009,1.009,0,0,0,.076-.19.715.715,0,0,0,.282.016.473.473,0,0,0,.19-.087c.01-.045.016-.077.021-.091a.422.422,0,0,1,.126.089.24.24,0,0,0,.118.071.213.213,0,0,0,.07-.044.2.2,0,0,1,.075-.036.255.255,0,0,1,.174.061.1.1,0,0,0-.024.055.977.977,0,0,0-.232.084.258.258,0,0,1-.064.04.339.339,0,0,1-.11-.018.288.288,0,0,0-.123-.02.217.217,0,0,0-.149.118.581.581,0,0,1,.18.036c-.226.116-.324.244-.293.387a.184.184,0,0,0,.025.066.222.222,0,0,1,.142.06.891.891,0,0,0-.171.448.042.042,0,0,0,.015.021c.086.042.141.069.174.086a.11.11,0,0,1,.062.064.242.242,0,0,1-.017.1.252.252,0,0,0-.015.127c.022.1.111.183.264.234.075.008.13.014.161.015a.254.254,0,0,0,0,.148l.081-.015a.694.694,0,0,0,.233-.072l0-.025c0-.007.008-.016.022-.02s.037.016.064.051.045.059.058.063a.167.167,0,0,1-.118.088.342.342,0,0,0,.133.17,1.485,1.485,0,0,0-.427.563,2.911,2.911,0,0,0,.039.311,4.352,4.352,0,0,1-.081.519,2.827,2.827,0,0,0,.433.046.216.216,0,0,0-.1.255.119.119,0,0,0,.161.1.055.055,0,0,0,.023-.015l-.017,0a.032.032,0,0,1,.025-.02.029.029,0,0,1,.029.008c0,.022.025.034.067.034.065-.006.1-.007.109-.01a.686.686,0,0,0,0,.336.4.4,0,0,0,.084.15c.052.067.09.1.109.095a1.069,1.069,0,0,0,.171-.073c.1-.044.155-.069.173-.072.178.268.351.389.51.355a.123.123,0,0,0,.089-.057.893.893,0,0,1,.086-.132c.045.048.093.1.139.141a.167.167,0,0,0,.145.048c-.017.005.019-.026.105-.095a.135.135,0,0,0,.11.053c.03-.006.091-.094.2-.253a.376.376,0,0,0,.221.041c-.018,0,.032-.047.151-.157a1.173,1.173,0,0,1,.175.05l.068.027q.161-.051.228-.509a.646.646,0,0,1-.241-.027.669.669,0,0,0,.027-.291c-.018-.07-.07-.094-.178-.072a.523.523,0,0,0-.087.027.508.508,0,0,1-.086.031.2.2,0,0,1-.162-.045.246.246,0,0,1-.1-.136c-.009-.046.031-.138.126-.275a.215.215,0,0,0,.127.064l-.012-.051a.107.107,0,0,1,0-.062c.079.014.115.027.107.029a.115.115,0,0,1,.127.065.133.133,0,0,0,.15.063.126.126,0,0,0,.051-.048c.02-.03.03-.048.037-.058l.061.037a.418.418,0,0,0,.072-.1,1.492,1.492,0,0,0,.25.043.347.347,0,0,0,.059-.135.278.278,0,0,0,.111,0,.067.067,0,0,0,.045-.024,1.345,1.345,0,0,1,.157-.08,2.087,2.087,0,0,1,.557-.192.05.05,0,0,1,.045-.034.042.042,0,0,1,.033,0,.339.339,0,0,1,0-.087.226.226,0,0,0,0-.062c-.1-.015-.167-.023-.216-.029l.315-.252-.011-.075-.028.006a.051.051,0,0,1-.047,0,1.8,1.8,0,0,0,.052-.22l-.072.014a2.581,2.581,0,0,1-.567.069c.11-.109.171-.167.168-.189a3.5,3.5,0,0,1-.354.068c.019-.092.037-.151.045-.187-.112.032-.186.051-.24.062a.346.346,0,0,1-.106.011.08.08,0,0,0,0-.066.065.065,0,0,0-.037-.053c-.075-.091-.151-.181-.24-.27a.6.6,0,0,0-.366-.2,1.441,1.441,0,0,0-.165-.251.072.072,0,0,1,.019-.024.092.092,0,0,0,.025-.022.663.663,0,0,1,.125.047.487.487,0,0,0,.126.047l.03-.039.073.047a1.651,1.651,0,0,0,.3-.116l.034-.042c.13-.078.251-.155.377-.231.17-.108.252-.206.253-.288l.034-.008a1.045,1.045,0,0,0,.276-.1c0-.083-.005-.146,0-.19a.728.728,0,0,1,.067-.145.191.191,0,0,1-.067-.063c.191-.159.28-.259.271-.308-.006-.023-.052-.051-.143-.08a.635.635,0,0,0,.181-.19c-.021-.052-.082-.07-.192-.047l-.045.009a.574.574,0,0,1-.293-.051.684.684,0,0,0-.338-.042.317.317,0,0,0-.064.026l0-.024a.451.451,0,0,0-.044-.1l-.209.069c-.147-.151-.238-.227-.28-.229a1.518,1.518,0,0,0-.39.018c-.1-.113-.165-.2-.217-.254l.036-.042c.1.078.173.134.216.166a1.693,1.693,0,0,0,.046-.222c.005.008.021.018.038.035a.244.244,0,0,0,.037.037,2.406,2.406,0,0,0,.105-.321.268.268,0,0,1,.056.087l.422.272c.047.157.114.226.191.213a.447.447,0,0,0,.2-.163.429.429,0,0,1,.227-.167l.014,0a.22.22,0,0,1,.084-.006l-.048-.237.209-.017a1.029,1.029,0,0,1,.046-.246A.283.283,0,0,0,198.6,309a.777.777,0,0,0,.481-.423,2.29,2.29,0,0,0-.32-.008c.166-.134.251-.227.248-.274l-.068.015a.33.33,0,0,1-.084.007l.021-.046c.136-.061.213-.131.234-.209.11-.03.179-.047.226-.061a.716.716,0,0,0,.147-.179c-.111-.026-.229-.063-.354-.1a.244.244,0,0,0,.045-.184c-.007-.039-.047-.062-.121-.064l-.165.014c.145-.11.253-.19.312-.238a.4.4,0,0,1-.234-.018l.068-.086c.091-.068.215-.161.363-.278l-.068.015a.384.384,0,0,1-.162.012,1,1,0,0,0,.061-.312l-.1.02a.809.809,0,0,1-.236.025.555.555,0,0,0,.039-.071.88.88,0,0,1-.33.191l-.036.01c-.008,0-.014-.005-.012-.01a.152.152,0,0,0,0-.061l-.009,0,0-.012a.111.111,0,0,1-.005-.05,1.864,1.864,0,0,0-.347.047.371.371,0,0,0,.007-.2l-.012-.059a1.388,1.388,0,0,0-.277.158.09.09,0,0,1-.051-.065l-.5.264-.01,0c-.016,0-.033.005-.038,0a.2.2,0,0,0,0-.051.208.208,0,0,0-.059-.113l-.2.042-.214.171c-.088-.05-.138-.071-.164-.064-.208.042-.357.247-.457.617-.158-.035-.371-.086-.617-.159-.059,0-.122-.007-.192-.015a.149.149,0,0,1-.144-.1.8.8,0,0,0,.141-.265c-.247-.023-.439-.034-.564-.034a.137.137,0,0,0,0-.087v-.025a.3.3,0,0,1-.152-.007l-.373-1.768a17.148,17.148,0,0,0,2.55-.723l.635-.287c.153-.1.175-.166.188-.2.6-.268,1.129-.534,1.61-.8-.236.378.371.506.545.869a.085.085,0,0,0-.074.006c.116.078.028.091-.042.115.172.162.348.156.52.349-.033.025-.062.005-.1.025.062.082.37.228.2.233.072.078.325.166.127.164.062.049.125.037.19.064a.145.145,0,0,1-.076.043c.178.1.361.1.541.213-.046.076-.088-.009-.136.066a3.549,3.549,0,0,1,.45.2c-.02.019-.038.04-.058.061a.765.765,0,0,0,.356.111c-.027.042-.077.025-.058.061a.521.521,0,0,1,.228-.012c-.029.061-.149.022-.117.081.048-.009.19-.048.169.009-.033,0-.158.027-.132.066.087,0,.179-.082.264-.017-.029.045-.142.1-.058.137.031-.034.063-.067.1-.1,0,.105.045-.012.093.013.031.044-.016.09.016.132.073-.027.053-.138.1-.1.06.022.014.146.073.108-.012-.043.036-.091.062-.136a2.193,2.193,0,0,1,1,.507c-.018-.008-.012.022-.014.06a.564.564,0,0,0-.231.705.118.118,0,0,0-.015.124.494.494,0,0,1,.272.287c-.167.123-.01.349.047.458.19.39.537.356.814.534.393.254.621.562.824.368a.037.037,0,0,0-.005.023c.015-.006.028-.014.043-.021v0h0a2.506,2.506,0,0,0,.389-.184,2.3,2.3,0,0,0,.466-.5,1.547,1.547,0,0,1,.2-.306c.1-.178.176-.4.256-.523a.146.146,0,0,0-.061-.038c.071-.006.051-.048.1-.1a11.014,11.014,0,0,1,.192-1.452,1.714,1.714,0,0,1,.035-1.253c.061-.152.2-.3.278-.472a4.622,4.622,0,0,1,.383-.876c.193-.247.468-.35.681-.628-.086-.094.223-.214.2-.314a.191.191,0,0,1-.1.025c.251-.181.158-.339.32-.512-.031-.04-.062-.008-.1-.015.08-.208.232-.52.156-.663a.03.03,0,0,1-.045.03,1,1,0,0,0-.09-.445c0,.015-.011.027-.03.017-.024-.062-.022-.226-.071-.223-.007.053.007.1-.041.154a3.661,3.661,0,0,0-.344-1.155c.009.04-.005.177-.046.154a3.349,3.349,0,0,0-.043-.393c-.073.026-.055.137-.1.1-.019-.092-.033-.187-.051-.28-.073.028.012.134-.057.1-.047-.037.012-.176-.073-.147.024.023-.029.078-.057.06-.021-.068-.015-.237-.088-.24a.282.282,0,0,1-.063.173c-.03-.08-.021-.261-.085-.278,0,.027-.035.15-.08.118-.018-.061.012-.226-.07-.224.029.017.007.122-.038.081a.552.552,0,0,0-.033-.189c-.067.068-.008.127-.082.194a1.914,1.914,0,0,0-.03-.263c-.083.04-.036.166-.1.137-.109-.147-.067-.4-.117-.5.009.024-.01.113-.041.073-.024-.087.021-.278-.068-.3.015.025.012.076-.02.058-.031-.062,0-.226-.069-.223.016.027.012.076-.02.058-.054-.095-.064-.376-.143-.294-.055-.1-.083-.376-.181-.293-.023-.074-.047-.148-.07-.222-.041.025-.023.077-.059.061-.04-.069-.016-.238-.087-.243.011.017-.009.121-.038.078a.492.492,0,0,0-.035-.188c-.062.033-.019.149-.077.12-.011-.119-.021-.092-.092-.051.011-.019,0-.121-.037-.075a.044.044,0,0,1-.019.057.088.088,0,0,1-.036-.072c-.074.028.01.133-.062.1-.035-.036.031-.078-.033-.113a.341.341,0,0,0-.31.015,16.417,16.417,0,0,0,1.086-2.594,16.6,16.6,0,0,0,.79-4.537c.51-.036,1.433-.116,1.9-.09.029.973,1.591,1.394,2.25,1.376.237-.007.935.1,1.069-.091.27-.383-.226-.529-.458-.611-.262-.094-1.714-.036-1.443-.826,0,0,1.8.037,2.011.034,0,0,.661,1.2,1.549,1.176.328-.009,1.3.016,1.218-.434-.069-.391-1.905-.066-1.734-.892,0,0,3.213.38,3.2-.16C216.7,288.251,215.118,288.181,214.861,288.188ZM183.27,271.047a7.74,7.74,0,0,1-.195-1.446c.028-.342.047-.914.047-.914a1.2,1.2,0,0,1,.189.438,4.334,4.334,0,0,1,.088,1.314,4.042,4.042,0,0,0,.061,1.361c.01.065.022.13.029.2C183.474,271.882,183.334,271.311,183.27,271.047Zm.219.959v0Zm-12.591,9.81c-.174.2-.348-.2-.48-.3C170.61,281.41,170.676,281.768,170.9,281.816Zm-.971-4.217c.242.133.177.388.053.662C169.787,278.108,169.928,277.826,169.928,277.6Zm-.1,1.7a.755.755,0,0,1,.051.661c.011-.014-.109-.1-.109-.1-.017.215.206.377.032.72-.177-.258-.391-.5-.187-.905C169.808,279.9,169.557,279.437,169.824,279.3Zm-.11-1.524a2.152,2.152,0,0,1-.277,1.767c0,.1.187.124.048.275-.225-.048-.059-.321-.071-.413-.019-.168-.123-.179-.112-.3A10.777,10.777,0,0,1,169.714,277.776Zm-.3,3.046c.078.063.254.048.324.12a1.322,1.322,0,0,1,.377.589c-.658-.109-1.356-.622-1.186-1.208C169.207,280.287,169.229,280.675,169.413,280.821Zm-.225-.6-.327-.12C168.909,279.9,169.326,280,169.188,280.223Zm-.094,1.061a1.227,1.227,0,0,1-.992.087C168.325,281.063,168.855,280.756,169.094,281.284Zm-.882,1.8c-.086.212-.309-.069-.235.237-.215-.163-.542-.282-.374-.59.212.049.271.156.178.324C167.992,283.241,168.173,282.9,168.212,283.084Zm-1.255,1.408c-.113-.409.36-.469.312-.852a.424.424,0,0,1,.067.219c.048-.062.135-.156.283.039C167.411,284.118,167.123,284.2,166.957,284.492Zm.177.322c.1-.2.115-.876.723-.763A2.32,2.32,0,0,1,167.134,284.813Zm.392-1.271c.27.122.148-.226.191-.317a.751.751,0,0,1,.27.678C167.774,283.96,167.407,283.763,167.526,283.542Zm.607.158c-.078-.05-.064-.138-.152-.184.193-.183.331-.47.664-.4A2.617,2.617,0,0,1,168.133,283.7Zm.378-.826c-.073.022-.21-.054-.28-.041-.25.054-.091.14-.413-.086-.106-.074-.188-.065-.24-.153a2.788,2.788,0,0,1,.833-.659c.427.044.418.259.805.424A2.212,2.212,0,0,1,168.511,282.874Zm.836-.661c-.352-.062-.328-.267-.611-.354-.523-.1-.8.257-1.1.565-.1-.323.293-.6.246-.877.216.05.118.217.264.29.156.015-.054-.233-.111-.3.34-.159.661.205.907-.054.085.06-.026.047-.042.112.114-.012.238-.008.28-.155a8.5,8.5,0,0,0,1.282.536C170.157,282.171,169.577,281.879,169.347,282.213Zm.48.3c.045-.3.692-.316,1.21-.071A3.354,3.354,0,0,1,169.826,282.518Zm20.809,25.362a1.484,1.484,0,0,1-.124-.229l.165-.034.022.107A.27.27,0,0,1,190.636,307.881Zm6.692,4.781c-.2-.016-.3-.082-.326-.192l-.024-.118C197.19,312.456,197.307,312.562,197.327,312.662Zm-.006-2.709a.279.279,0,0,1,.156.14.516.516,0,0,1-.184-.035A.166.166,0,0,1,197.322,309.953Zm-.335.017a2.331,2.331,0,0,1,.267-.041.293.293,0,0,0-.016.15l-.215.045a.29.29,0,0,0-.081-.144Zm-.9,3.014c-.046-.076-.1-.1-.159-.09a.288.288,0,0,0-.09.03l-.107.02a.165.165,0,0,1-.116-.037c-.054-.03-.076-.054-.079-.069a.155.155,0,0,1,.01-.092.244.244,0,0,0,.01-.1l.632.264A.2.2,0,0,1,196.089,312.984Zm.461-.285c0,.017.018.03.039.046l-.254.052a.874.874,0,0,0-.2-.16.086.086,0,0,0,.047-.022.163.163,0,0,1,.057-.024.107.107,0,0,0,.052-.024.254.254,0,0,1,.052-.023.9.9,0,0,1,.314.024C196.575,312.585,196.535,312.629,196.551,312.7Zm.3-.173a.44.44,0,0,0-.259-.069c-.008,0-.05,0-.125.011s-.127.013-.141.015a1.146,1.146,0,0,0-.135.055,1.061,1.061,0,0,1-.14.058c-.064.01-.142-.027-.245-.111a.25.25,0,0,0,.072-.066c.032-.041.058-.063.076-.064l.021-.008a.121.121,0,0,0-.033-.029.522.522,0,0,0,.206-.094.633.633,0,0,0,.092-.217.348.348,0,0,1,.173-.125l.036-.007a.162.162,0,0,0,.078-.042C196.708,312.212,196.815,312.442,196.847,312.526Zm-.429-2.76c.012,0,.027-.008.03-.019l-.017-.009.023,0,.406.44-.288.058-.017-.08a1.78,1.78,0,0,0-.277.03,2.546,2.546,0,0,0-.36-.347.592.592,0,0,0,.048-.124,1.218,1.218,0,0,1,.129.074c0-.006,0-.019.012-.033s.009-.019.006-.026a.689.689,0,0,0,.008.078.192.192,0,0,0,.09.13,1.116,1.116,0,0,0,.113-.088A.615.615,0,0,1,196.417,309.767Zm-.817-.436-.04-.192a.1.1,0,0,0,.033-.027.19.19,0,0,1,.054-.03l.062-.012a.025.025,0,0,0,.018-.033.051.051,0,0,1,.03-.031c.023,0,.048.056.075.176l.01.056a.32.32,0,0,1-.022.242.543.543,0,0,0-.153.069c.019-.011.023-.036.015-.077A.233.233,0,0,0,195.6,309.331Zm.243-.442a1.225,1.225,0,0,0-.015-.143,1.441,1.441,0,0,0,.235.073,1.439,1.439,0,0,1,.042.3c-.025.007-.057-.006-.1-.041-.01.029-.019.068-.032.122a.283.283,0,0,1-.032.1l-.038-.015C195.873,309.113,195.853,308.981,195.843,308.889Zm.381-.326.017.095c-.27-.116-.481-.206-.624-.269.038-.044.057-.08.052-.1.09.011.164.023.218.028l0,.011c0,.027.025.034.055.027.01,0,.011-.007.008-.013s0-.015.019-.016a.036.036,0,0,1,.032.006.033.033,0,0,0-.009.026.307.307,0,0,0,.125-.014.259.259,0,0,1-.03.086.229.229,0,0,0-.023.088Zm-.148-.991-.188.288-.017-.084a.827.827,0,0,0-.079-.233C195.919,307.561,196.013,307.568,196.077,307.572Zm-.3-.035-.027,0a.307.307,0,0,0-.23.161.782.782,0,0,0-.008-.221A2.2,2.2,0,0,1,195.777,307.537ZM195.431,309a.115.115,0,0,1,.069-.04c.017,0,.03,0,.036.005l.036-.008c.062-.011.09-.044.079-.089a.336.336,0,0,0-.187-.2c.169-.015.263.024.283.116a.2.2,0,0,1-.057.2c-.061.054-.111.1-.167.16a.685.685,0,0,0-.134-.108A.115.115,0,0,0,195.431,309Zm-.039-1.573.009.039-.054.009-.007-.035Zm-.113,2.638c.167-.034.241-.107.214-.218a.11.11,0,0,0-.024-.07,5.273,5.273,0,0,1,.454.377l-.162.037a.161.161,0,0,0-.163-.046.459.459,0,0,0-.12.047.4.4,0,0,1-.087.036.227.227,0,0,1-.078-.009.166.166,0,0,0-.082-.008l-.025-.129Zm-2.284-.62a.387.387,0,0,1,.128-.05.268.268,0,0,1,.175.06.708.708,0,0,1-.1.051A.64.64,0,0,1,193,309.446Zm.382.382a.843.843,0,0,1-.19-.011c.056-.085.108-.152.145-.2-.011-.006-.025-.016-.052-.029l-.049-.028c.027,0,.062-.005.107-.008a.317.317,0,0,0,.088-.006.624.624,0,0,0,.175-.07A3.751,3.751,0,0,0,193.378,309.828Zm.275-.468-.155.033a.363.363,0,0,1-.209-.006.329.329,0,0,0-.168-.015l-.024.007a.181.181,0,0,0-.112.061.931.931,0,0,0-.1-.056.354.354,0,0,0,.1-.219l.327.005a.33.33,0,0,0-.083-.131c.257-.082.375-.184.346-.323a.1.1,0,0,0-.029-.044,1.815,1.815,0,0,1,.42-.026A2.678,2.678,0,0,1,193.653,309.36Zm.889.873a2.044,2.044,0,0,0,.033.377.426.426,0,0,0-.144-.008,1.275,1.275,0,0,1-.079-.167c.081-.167.118-.257.118-.26a.565.565,0,0,0-.068-.15.77.77,0,0,0-.289-.089c-.01,0-.052-.032-.122-.1s-.13-.105-.171-.1l-.059.015a.113.113,0,0,1-.04,0c.057-.112.133-.278.25-.5s.2-.386.253-.5l.3,1.2C194.52,309.959,194.529,310.054,194.541,310.233Zm9.811-31.533c.02.04.057.082.107.041a.261.261,0,0,0,.1-.144s.521.485.556.828.048.36.365.8.619.875.619.875a1.544,1.544,0,0,0-.22.539c-.066.327.139.617.094.655a.348.348,0,0,1-.073.033c-.015-.034-.027-.07-.042-.1a17.039,17.039,0,0,0-1.459-2.5,1.054,1.054,0,0,0,.1-.045.2.2,0,0,0,.169.086C204.779,279.76,204.44,278.915,204.352,278.7Zm-.169,5.76a19.923,19.923,0,0,1-2.805,4.209c-.163-.681-.358-1.352-.579-2.01a23.553,23.553,0,0,0-3.3-6.309,22.143,22.143,0,0,0,2.011-2.884A13.94,13.94,0,0,1,204.183,284.46Zm.644,4.438a13.471,13.471,0,0,1-4.082,9.7,11.19,11.19,0,0,0,1.07-3.7,17.265,17.265,0,0,0-.206-5.12l.015-.018a18.883,18.883,0,0,0,2.483-3.95c.095-.208.184-.419.27-.632A15.566,15.566,0,0,1,204.827,288.9Zm-11.251,13.194a11.024,11.024,0,0,1-3.756-1.663,18.116,18.116,0,0,1-2.627-2.181,23.627,23.627,0,0,0,6.956-2.412c.839,1.5,1.994,3.566,3.024,5.3a14.477,14.477,0,0,1-2.887,1.073A6.931,6.931,0,0,1,193.577,302.092Zm-2.037-13.515q-.559-1.068-1.127-2.13a27.665,27.665,0,0,0,5.169-4q.648-.639,1.255-1.324a24.137,24.137,0,0,1,1.339,2.312,25.35,25.35,0,0,1,1.548,3.629,22.269,22.269,0,0,1,.738,2.618,26.9,26.9,0,0,1-6.056,4.686C193.481,292.418,192.518,290.494,191.539,288.576Zm3.368,6.842a24.53,24.53,0,0,0,5.778-4.58c0,.016.006.032.009.048a18.066,18.066,0,0,1,.237,3.937,11.473,11.473,0,0,1-.831,3.833,7.491,7.491,0,0,1-.466.925,14.191,14.191,0,0,1-2.158,1.4C196.658,299.129,195.642,296.976,194.907,295.419Zm4.031-21.079-.007,0,0-.011Zm.354,2.963a31.9,31.9,0,0,1-2.215,2.508c-.082-.1-.161-.211-.245-.314a15.911,15.911,0,0,0-6.155-4.772c.242-.011.484-.03.727-.03A12.953,12.953,0,0,1,199.292,277.3Zm-4.774-6.288c.051.209-.006.2-.041.356s-.179.279-.174.332l-.182-1.173S194.468,270.805,194.518,271.015Zm-6.5-.3c.056-.2,1.163-.4,1.857-.648a5.811,5.811,0,0,0,1.621-1.223,1.2,1.2,0,0,1,.321.564c.129.412.384.287.709.556s.153.385.276.9.26,1.1.38,1.611.044.273.023.5a.487.487,0,0,1-.028.107c-.406.037-.591.138-.332.305a13.257,13.257,0,0,0-2.338-.169,4.724,4.724,0,0,0-1.3.157,3.579,3.579,0,0,1-.442-.386A3.638,3.638,0,0,1,188.02,270.712Zm-3.111,1.849a1.8,1.8,0,0,1,.738-.975,4.483,4.483,0,0,1,1.337.776,5.4,5.4,0,0,1,1.076,1.821l-.067.033c-.573.287-1.415.624-2.536,1.214-.009-.025-.019-.051-.025-.075-.038-.168-.343-.254-.607-.527S184.717,273.215,184.909,272.561Zm3.27,9.79c-1.147-2.04-2.33-4.06-3.611-6.026a15.594,15.594,0,0,1,3.707-1.288c.2.1.372,0,.78-.153a15.134,15.134,0,0,1,1.561-.156,20.262,20.262,0,0,1,5.514,5.347c.1.136.188.275.282.413q-.689.665-1.409,1.291a34.54,34.54,0,0,1-5.129,3.654Q189.044,283.882,188.18,282.35Zm-2.794,6.444a26.881,26.881,0,0,0,3.695-1.592c.124-.065.246-.136.369-.2.359.715.717,1.43,1.08,2.143.995,1.905,2,3.8,3.054,5.676a25.908,25.908,0,0,1-7.19,2.581,22.531,22.531,0,0,1-2.3-3.027,26.424,26.424,0,0,1-2.4-4.68A23.231,23.231,0,0,0,185.385,288.794Zm-13.819,3.654c.058-.033.318-.4.376-.446s.356-.461.467-.577a5.067,5.067,0,0,1,.528-.434c.041-.025.238-.137.4-.229a17.036,17.036,0,0,0,.4,1.9l-.726.064a2.149,2.149,0,0,1-.236-.056,2.1,2.1,0,0,0-.334-.023c-.183-.006-.461.006-.505.008a1.8,1.8,0,0,1-.455,0C171.389,292.619,171.507,292.482,171.566,292.448Zm.69,2.8c-.028-.023-.1-.069-.132-.064a.371.371,0,0,1-.116-.015,1.8,1.8,0,0,0-.565.01,1.268,1.268,0,0,0-.261.124,1.183,1.183,0,0,1-.03-.267.4.4,0,0,0,.048-.09l.068-.065-.043.007.06-.029s-.026-.014-.026-.024a.7.7,0,0,1,.136-.145c.072-.063.059-.25.059-.25l.025-.264s-.027.1-.06.112.042-.241.042-.241a.084.084,0,0,0-.067.024c-.023.029.044-.24.026-.215s-.063.038-.063.038.062-.193.038-.171a.126.126,0,0,1-.079.012s.08-.153.059-.148-.07.017-.07.017a.852.852,0,0,1,.043-.17c.042-.049.088-.137.15-.17a6.3,6.3,0,0,1,.706-.109l.525-.046a2.758,2.758,0,0,0,.354-.13,4.138,4.138,0,0,1,.552-.091l.16-.015a17.413,17.413,0,0,0,.678,1.966c-.221.185-.46.365-.558.437a.918.918,0,0,1-.512.165,2.485,2.485,0,0,1-.485-.073C172.782,295.335,172.284,295.268,172.257,295.245Zm3.073,1.429a4.514,4.514,0,0,1-.8.088,4.926,4.926,0,0,1-.749-.033.962.962,0,0,1-.341-.117c-.055-.04-.488-.3-.539-.328s-.166-.07-.166-.07l.017-.019-.047-.007.012-.022-.05,0v-.026l-.04-.031s-.1-.052-.1-.082-.079-.065-.079-.065.194-.062.274-.081a3.158,3.158,0,0,1,.575.07.831.831,0,0,0,.355-.034,4.061,4.061,0,0,0,.364-.3c.041-.021.5-.507.531-.545l.019-.018a17.26,17.26,0,0,0,.789,1.609A.208.208,0,0,1,175.329,296.674Zm1.228-6.954c.317.054.637.1.957.128a16.712,16.712,0,0,0,3.117-.022,24.517,24.517,0,0,0,2.506,5.207,23.137,23.137,0,0,0,1.942,2.58,17.433,17.433,0,0,1-5.346-.066A13.98,13.98,0,0,1,176.557,289.72Zm4.2,13.069a4.281,4.281,0,0,1-.712.725.755.755,0,0,0-.135.075l-.007.016s-.009,0,.007-.016c.042-.085.554-1.143.557-1.251a.149.149,0,0,1,.024-.089c.1.067.191.136.294.2l.155-.037c.014.09-.055.124-.084.185C180.805,302.685,180.771,302.755,180.754,302.789Zm4.149,3.068c.071.4-.119.356-.119.356s-.272.157-.488.289a.507.507,0,0,0-.213.414l-.1-.04a9.439,9.439,0,0,1-.729-.878,3.465,3.465,0,0,0-1.02-.628,1.457,1.457,0,0,0-.862-.249c-.4.019-.537.03-.537.03s.1-.186.16-.286.143-.135.295-.223.074-.143.059-.3,0-.037.035-.112.086-.208.135-.3.17-.1.179-.224a.532.532,0,0,1,.074-.249c.058-.134.143-.135.2-.194a.438.438,0,0,1,.128-.088,16.81,16.81,0,0,0,2.581,1.339l.067.021a2.516,2.516,0,0,0,.147.557C185.021,305.291,184.833,305.456,184.9,305.857Zm1.644-.551c.433.25-.191,1.063-.191,1.063a2.8,2.8,0,0,0-.183-.957.607.607,0,0,1-.04-.474l.165.042C186.3,305.079,186.354,305.2,186.547,305.306Zm4.077-2.639a14.1,14.1,0,0,1-10.407-4.567c.367.094.738.171,1.111.234a17.041,17.041,0,0,0,4.51.1,16.682,16.682,0,0,0,3.516,2.783,11.191,11.191,0,0,0,3.3,1.307A14.893,14.893,0,0,1,190.624,302.667Zm11.8.17c-.094.144.094.373-.05.459-.007-.018-.023-.118-.073-.074a.078.078,0,0,1-.023.1c-.037-.027-.02-.061-.055-.091-.1.065-.092.126-.174.144-.039-.039.036-.178-.035-.149.016.016-.006.118-.038.077.022-.035.006-.16-.055-.129.044.014-.062.123-.077.079-.06-.045-.012-.1-.071-.146-.045.024-.094.138-.137.1a.3.3,0,0,0-.05-.206c-.031.028-.065.081-.095.063.017-.047-.121-.182-.166-.161a.211.211,0,0,1,.015.094c-.038-.035-.074-.072-.111-.108-.073.028.013.133-.058.1s-.021-.088-.092-.129c-.072.028.011.135-.059.1-.025-.022-.049-.047-.074-.07-.3.149-.581-.416-.884-.27.036-.048-.01-.086.023-.135.043.027.088,0,.13.051.125-.106.149-.2.056-.3q.615-.452,1.187-.958a.373.373,0,0,0-.022.053c.271.415.815.4.911.771-.062-.043-.222-.141-.225-.1.019.037.122.069.075.109a.4.4,0,0,0-.188.013c.059.089.123.06.184.14-.053.05-.1-.041-.152.009a1.512,1.512,0,0,1,.28.192c-.029.039-.147-.021-.115.044.083.029.261.1.28.193-.044-.026-.087-.069-.133-.012.055.082.21.153.2.235C202.51,302.881,202.467,302.906,202.424,302.837Zm2.5-5.494c.013.075.061.148.072.224-.038.016-.075-.067-.115-.033a.666.666,0,0,1,.183.255.123.123,0,0,0-.131-.05,2.938,2.938,0,0,1,.383.528c-.032-.025-.061-.074-.094-.051.043.111.2.216.257.326-.059.553.513,1.169.085,1.681-.032-.038-.018-.174-.072-.147,0,.082-.01.266-.064.287-.027-.032-.029-.16-.091-.127-.022.1-.006.292-.067.327-.018-.056-.033-.112-.051-.167-.072.105-.012.2-.085.308-.1-.09-.128-.283-.237-.309.011.022.028.134-.022.1-.068-.043-.133-.181-.2-.158a.414.414,0,0,1,.069.221c-.173-.134-.262-.376-.461-.446a.124.124,0,0,1,.056.131c-.129-.069-.136-.244-.259-.251-.007.051.054.1,0,.153-.091-.118-.187-.114-.279-.231-.08.056.036.1,0,.153a1.407,1.407,0,0,1-.28-.156c-.088.064.066.11-.024.174a1.706,1.706,0,0,1-.411-.4.083.083,0,0,1-.054.028,16.993,16.993,0,0,0,1.614-2.172A1.538,1.538,0,0,1,204.923,297.343Z" transform="translate(-164.865 -259.776)" fill="#000000" fill-rule="evenodd"/>
      <path class="path-c" d="M180.957,283.158c0,.046,0,.178.06.2s.089-.063.111-.118a.216.216,0,0,1,.018.03c.02.047.042.092.063.141a.583.583,0,0,0,.039.091.209.209,0,0,1,.029.095,1.14,1.14,0,0,0,.191,1.217,2.038,2.038,0,0,1,.092-.282c.022-.041.045-.083.066-.123a.522.522,0,0,0,.072-.135,5.725,5.725,0,0,0,.973.417.865.865,0,0,1,.336.157c.045.035.085.078.13.113a.548.548,0,0,0,.142.1.377.377,0,0,0,.015-.124,1.4,1.4,0,0,0-.24-.451,7.929,7.929,0,0,0-1.127-.878,1.212,1.212,0,0,1-.2-.174.614.614,0,0,1-.126-.208.349.349,0,0,1-.028-.228c.027-.121.082-.012.161,0,.058-.142-.014-.248-.048-.381a1.1,1.1,0,0,1-.043-.471,3.387,3.387,0,0,1,.2-.538,1.083,1.083,0,0,1,.216-.311c.025-.028.122-.12.159-.113s.065.078.067.107a.553.553,0,0,0,.191-.3,1.182,1.182,0,0,0,.031-.183.361.361,0,0,1,.1-.188.81.81,0,0,1,.283-.275c.182-.085.386-.116.565-.207a3.268,3.268,0,0,0,.672-.37c.106-.085.2-.144.275,0a.887.887,0,0,1,.083.444c-.006.13-.019.262-.03.392-.009.112-.048.22-.062.33a1.7,1.7,0,0,0,.638-.735,5.282,5.282,0,0,0,.313-.931c.026-.142.433-.2.562-.25.309-.11.561-.232.632-.147a.942.942,0,0,1,.176.762,1.32,1.32,0,0,0,.715-.1c.145-.051.4-.141.389-.332,0-.1-.077-.18-.1-.273s-.015-.216-.046-.32c-.025-.084-.091-.144-.12-.226a.63.63,0,0,1,0-.284.44.44,0,0,0-.18-.475c0-.2-.136-.262-.276-.377-.109-.089-.08-.208-.153-.312a1.747,1.747,0,0,1-.21-.261c-.055-.118-.127-.245-.272-.254-.113-.007-.214.071-.317.1a1.916,1.916,0,0,0-.327.116c-.074.038-.236.089-.271.17-.042.1.114.182.175.233a1,1,0,0,1,.325.481s.012.125-.2.183a9,9,0,0,0-1.115.244,1.483,1.483,0,0,0-.127-.091.84.84,0,0,0-.2-.086c-.145-.041-.278-.107-.423-.138a3.977,3.977,0,0,0-.417-.059.714.714,0,0,0-.221.043c-.06.011-.221.046-.215.122.091.009.171.056.262.067a.308.308,0,0,1,.253.146c.05.067.183.19.166.285s-.156.135-.227.172a4.491,4.491,0,0,0-2.47,2.637,5.039,5.039,0,0,0-.138,1.577A1.615,1.615,0,0,0,180.957,283.158Z" transform="translate(-172.588 -267.77)" fill="#000000" fill-rule="evenodd"/>
      <path class="path-c" d="M172.608,336.258c.006-.07-.058-.148-.128-.227.256-.321-.049-.955.09-1.391a5.412,5.412,0,0,0,2.291-.633c-.441-.105-.893.18-1.539.138a3.6,3.6,0,0,1-.943-.285,3.417,3.417,0,0,0-.742-.174c-.734-.132-1.506-1.084-1.857-1.691a3.862,3.862,0,0,0,.545.881,1.106,1.106,0,0,0,.626,1.254c-.217,1.041-.987,2.024-.734,3.117.193-.142.1-.316.233-.463.037.075,0,.141.068.222a1.518,1.518,0,0,0,.172-.471c.059.057.022.1.075.161.175-.083.019-.2.152-.286.041.2.109-.073.167-.135.059.115.2-.022.259-.155a8.293,8.293,0,0,0,.863,2.71c.168-.224-.083-.494-.042-.734.045.055.089.112.133.166.134-.217-.078-.474-.073-.707.034.044.071.087.1.133.186-.133-.08-.313.021-.455.027.019.052.066.086.041.017-.111-.054-.23-.054-.343.044-.034.076.035.119.014-.005-.108-.123-.286.054-.207a.43.43,0,0,1-.06-.281c.028.019.055.065.086.042C172.6,336.391,172.409,336.172,172.608,336.258Z" transform="translate(-167.227 -294.469)" fill="#000000" fill-rule="evenodd"/>
    </g>
  </g>
</svg>
