<svg class="svg-icon" style="width: 1em; height: 1em;vertical-align: middle;fill: currentColor;overflow: hidden;" viewBox="0 0 1024 1024" version="1.1" xmlns="http://www.w3.org/2000/svg"><path d="M921.6 636.946789c-3.757798 0.93945-5.636697 1.878899-5.636697 1.878899s5.636697-3.757798 9.394495-7.515596 6.576147-7.515596 4.697248-5.636698c-1.878899 0.93945-6.576147 6.576147-9.394496 6.576147-2.818349 0.93945-4.697248 1.878899-4.697247 1.878899s6.576147-6.576147 8.455046-10.333945c2.818349-3.757798 4.697248-5.636697 2.818348-5.636697s-5.636697 5.636697-7.515596 7.515596l-2.818349 2.818349s6.576147-8.455046 7.515597-11.273394c0.93945-2.818349 0-3.757798-1.878899-0.93945-1.878899 2.818349-1.878899 2.818349-3.757799 4.697248l-3.757798 3.757798s5.636697-9.394495 5.636697-12.212844c0-2.818349-0.93945-3.757798-1.878899-0.93945-0.93945 2.818349-2.818349 6.576147-2.818348 6.576147s2.818349-7.515596 1.878899-9.394495c-0.93945-0.93945-2.818349 3.757798-2.818349 3.757798s1.878899-5.636697 0-4.697248c-1.878899 0.93945-2.818349 6.576147-2.818348 6.576147s0.93945-3.757798-0.93945-2.818349c-1.878899 0-2.818349 3.757798-2.818349 3.757799s-0.93945-0.93945-1.878899 0 0 1.878899-1.878899 1.878899c-0.93945 0-1.878899 1.878899-2.818348 0.939449-0.93945-0.93945 0-0.93945-1.878899-0.939449s-0.93945-0.93945-1.8789 0-2.818349-0.93945-3.757798 0c-0.93945 0-0.93945 0-1.878899-0.93945h-1.878899s-0.93945-1.878899-1.878899-0.939449c-0.93945 1.878899-0.93945 1.878899-1.878899 0.939449s-1.878899-1.878899-2.818349-0.939449h-2.818348c-1.878899 0-1.878899 0.93945-1.878899 0.939449 0 0.93945-0.93945 0.93945-1.878899 0.93945s-0.93945 0-0.93945 0.939449-0.93945 0-1.878899 0-1.878899 1.878899-1.878899 1.878899-0.93945-0.93945-1.878899 0c-0.93945 0 0-1.878899-0.93945-1.878899-0.93945 0.93945-0.93945 2.818349-1.878899 1.878899-0.93945-0.93945 0-7.515596 0.93945-12.212844s0.93945-8.455046 0-6.576147c-0.93945 0.93945-0.93945 1.878899-0.93945 0.93945s0.93945-4.697248 0-2.818349 0 0-1.878899 1.878899c-0.93945 2.818349-2.818349 5.636697-2.818349 6.576147 0 0.93945-1.878899-0.93945-1.878899 0.93945s-1.878899 5.636697-2.818348 9.394495c-0.93945 3.757798-0.93945 5.636697-0.93945 5.636697s-0.93945-0.93945-2.818348 6.576147c-1.878899 8.455046-3.757798 21.607339-4.697248 25.365138-0.93945 3.757798 0 5.636697-0.93945 9.394495-0.93945 2.818349 0 4.697248-0.939449 4.697248s-0.93945 0.93945 0 1.878899c0.93945 0 1.878899 0 3.757798-0.93945s2.818349 0 3.757798-3.757798l0.93945-2.818348c1.878899 0 4.697248-1.878899 9.394495 1.878899 3.757798 3.757798 5.636697 10.333945 8.455046 14.091743 2.818349 3.757798 0 0 4.697248 2.818349s3.757798 3.757798 12.212844 3.757798 15.031193-0.93945 11.273394-1.878899c-2.818349 0-9.394495-1.878899-4.697248-0.93945s6.576147-1.878899 3.757799-2.818349c-2.818349 0-8.455046-1.878899-8.455046-1.878899s6.576147 0 6.576147-2.818348-4.697248 0-5.636698 0c-0.93945 0 4.697248-2.818349 3.757798-3.757798-0.93945-0.93945-6.576147 1.878899-6.576146 1.878899s6.576147-5.636697 4.697247-5.636698c-1.878899 0-2.818349 0.93945-2.818348 0.93945s3.757798-6.576147 2.818348-6.576147c-0.93945 0-2.818349 2.818349-2.818348 2.818349s1.878899-5.636697 0.939449-5.636697c0 0-0.93945 0-0.939449 0.939449 0-0.93945 0.93945-1.878899 0-2.818349-0.93945-0.93945-1.878899 0-1.878899 0s0-0.93945-0.93945-0.939449 0.93945-1.878899-0.939449-1.878899-0.93945-0.93945-0.93945-0.93945 5.636697-3.757798 14.091743-7.515596 12.212844-5.636697 18.788991-8.455046c6.576147-2.818349 10.333945-4.697248 8.455046-4.697248-1.878899 0.93945-4.697248 1.878899-8.455046 2.818349"  /><path d="M770.348624 687.677064c0 0.93945 0.93945 2.818349 0.939449 3.757798-0.93945 0-0.93945-0.93945-1.878899-0.939449 1.878899 1.878899 2.818349 2.818349 3.757798 4.697248-0.93945-0.93945-1.878899-0.93945-2.818348-0.93945 3.757798 2.818349 4.697248 6.576147 6.576147 9.394495-0.93945 0-0.93945-0.93945-1.878899-0.939449 0.93945 1.878899 3.757798 3.757798 4.697247 5.636697-0.93945 10.333945 9.394495 20.66789 1.878899 30.062385-0.93945-0.93945 0-2.818349-0.939449-2.818348 0 1.878899 0 4.697248-0.93945 5.636697-0.93945-0.93945-0.93945-2.818349-1.878899-1.878899 0 1.878899 0 5.636697-0.939449 5.636697 0-0.93945-0.93945-1.878899-0.93945-2.818348-0.93945 1.878899 0 3.757798-1.878899 5.636697-1.878899-1.878899-1.878899-4.697248-4.697248-5.636697 0 0 0.93945 2.818349 0 1.878899-0.93945-0.93945-2.818349-2.818349-3.757798-2.818349 0.93945 0.93945 0.93945 2.818349 0.93945 3.757798-2.818349-2.818349-4.697248-6.576147-8.455046-8.455046 0.93945 0.93945 0.93945 1.878899 0.939449 2.818349-1.878899-0.93945-2.818349-4.697248-4.697247-4.697248 0 0.93945 0.93945 1.878899 0 2.818349-1.878899-1.878899-3.757798-1.878899-4.697248-3.757798-1.878899 0.93945 0.93945 1.878899 0 2.818348-1.878899-0.93945-3.757798-1.878899-4.697248-2.818348-1.878899 0.93945 0.93945 1.878899 0 2.818348-2.818349-1.878899-5.636697-4.697248-7.515596-7.515596 0 0-0.93945 0-0.93945 0.93945 10.333945-12.212844 20.66789-25.365138 29.122936-39.456881 0.93945-0.93945 2.818349-2.818349 4.697248-2.818349z m-46.033028 98.642202c-1.878899 2.818349 1.878899 6.576147-0.939449 8.455046 0 0 0-1.878899-0.93945-0.93945v1.878899c-0.93945-0.93945 0-0.93945-0.939449-1.878899-1.878899 0.93945-1.878899 1.878899-2.818349 2.818349-0.93945-0.93945 0.93945-2.818349-0.939449-2.818349 0 0 0 1.878899-0.93945 0.93945 0-0.93945 0-2.818349-0.93945-1.878899 0.93945 0-0.93945 1.878899-0.939449 1.878899-0.93945-0.93945 0-1.878899-0.93945-2.818349-0.93945 0-1.878899 2.818349-2.818348 1.878899 0-0.93945 0-2.818349-0.93945-3.757798-0.93945 0.93945-0.93945 1.878899-1.878899 0.93945 0-0.93945-1.878899-3.757798-2.818348-2.818349v1.878899l-1.8789-1.878899c-0.93945 0.93945 0 2.818349-0.939449 1.878899-0.93945-0.93945 0-1.878899-1.878899-1.878899-0.93945 0.93945 0 2.818349-0.93945 1.878899l-0.939449-0.939449c-5.636697 2.818349-10.333945-7.515596-15.970642-4.697248 0.93945-0.93945 0-1.878899 0-2.818349 0.93945 0.93945 1.878899 0 2.818348 0.93945 1.878899-1.878899 2.818349-3.757798 0.93945-5.636697 7.515596-5.636697 15.031193-11.273394 21.607339-16.910092v0.939449c4.697248 7.515596 15.031193 7.515596 16.910092 14.091744-0.93945-0.93945-3.757798-2.818349-3.757798-1.8789 0 0.93945 1.878899 0.93945 0.939449 1.8789h-3.757798c0.93945 1.878899 1.878899 0.93945 3.757798 2.818348-0.93945 0.93945-1.878899-0.93945-2.818348 0 1.878899 0.93945 3.757798 1.878899 4.697247 3.757798-0.93945 0.93945-2.818349 0-1.878899 0.93945 1.878899 0.93945 4.697248 1.878899 4.697248 3.757798-0.93945 0-1.878899-0.93945-2.818349 0 0.93945 1.878899 3.757798 2.818349 3.757798 4.697248-1.878899-3.757798-2.818349-2.818349-3.757798-4.697248z m-213.255046-2.818349c-74.216514 0-141.856881-31.941284-187.889908-82.671559 6.576147 1.878899 13.152294 2.818349 19.728441 4.697248 27.244037 4.697248 54.488073 4.697248 81.73211 1.878899 18.788991 19.72844 40.39633 36.638532 63.882568 50.730275 18.788991 11.273394 38.517431 18.788991 60.124771 23.486238-12.212844 0.93945-24.425688 1.878899-37.577982 1.878899z m-73.277064 47.911927c7.515596 4.697248-3.757798 18.788991-3.757798 18.788991s-0.93945-13.152294-3.757798-16.910092c-1.878899-2.818349-0.93945-5.636697-0.93945-8.455046 0.93945 0 1.878899 0.93945 2.818349 0.93945 0.93945 0.93945 1.878899 3.757798 5.636697 5.636697z m-30.062385 9.394495c0.93945 7.515596-1.878899 6.576147-1.878899 6.576147s-4.697248 2.818349-8.455046 5.636697-3.757798 7.515596-3.757798 7.515597l-1.878899-0.93945c-1.878899-0.93945-9.394495-11.273394-13.152294-15.970642-3.757798-4.697248-13.152294-8.455046-18.788991-11.273394-5.636697-2.818349-8.455046-4.697248-15.970642-4.697248-7.515596 0-9.394495 0.93945-9.394495 0.939449s1.878899-3.757798 2.818348-4.697247c0.93945-1.878899 2.818349-2.818349 5.636698-3.757798 2.818349-1.878899 0.93945-2.818349 0.939449-5.636698s0-0.93945 0.93945-1.878899 1.878899-3.757798 2.818348-5.636697c0.93945-1.878899 2.818349-1.878899 2.818349-3.757798s0-1.878899 0.939449-4.697248 2.818349-2.818349 3.757799-3.757798c0-0.93945 0.93945-0.93945 1.878899-1.878899 14.091743 9.394495 30.062385 17.849541 46.972477 24.425688h0.939449c0.93945 3.757798 0.93945 7.515596 2.818349 10.333945 2.818349 2.818349-0.93945 6.576147 0 13.152293z m-75.155963-55.427522c0 0.93945-9.394495 11.273394-13.152294 13.152293-1.878899 0.93945-1.878899 0.93945-2.818349 0.93945 0.93945-1.878899 10.333945-20.66789 10.333945-22.546789v-1.878899c1.878899 0.93945 3.757798 2.818349 5.636698 3.757798l2.818348-0.93945c0 1.878899-0.93945 1.878899-1.878899 3.757798 0 1.878899 0 3.757798-0.939449 3.757799z m-75.155964-235.801835c5.636697 0.93945 11.273394 1.878899 16.910092 1.878899 18.788991 1.878899 37.577982 1.878899 56.366973 0 11.273394 32.880734 26.304587 64.822018 45.093578 93.944954 10.333945 15.970642 22.546789 31.941284 34.759633 46.972477-31.941284 3.757798-64.822018 4.697248-96.763303-0.93945-31.941284-39.456881-52.609174-88.308257-56.366973-141.85688zM234.862385 675.46422c-2.818349 0.93945-11.273394 0.93945-14.091743 0.93945-2.818349 0-10.333945 0-13.152293-0.93945-2.818349-0.93945-5.636697-1.878899-6.576147-1.878899-0.93945-0.93945-8.455046-5.636697-9.394496-5.636697-1.878899 0-3.757798-0.93945-3.757798-0.93945h-1.878899v-0.939449l-0.939449-0.93945s-1.878899-0.93945-1.878899-1.878899-1.878899-0.93945-1.8789-0.939449 3.757798-0.93945 4.697248-1.878899c1.878899 0 7.515596 0.93945 10.333945 0.939449 2.818349 0 5.636697 0 6.576147-0.939449 0.93945 0 5.636697-4.697248 6.576147-5.636698 0.93945 0 9.394495-9.394495 9.394495-9.394495 6.576147 10.333945 11.273394 19.72844 15.970642 30.062385 0-0.93945 0 0 0 0z m-55.427523-26.304587c-0.93945 0-1.878899-0.93945-2.818348-0.93945h-1.878899c-3.757798-0.93945-8.455046 0-10.333945 0-1.878899 0-4.697248 1.878899-4.697248 1.8789l-0.93945-4.697248 0.93945-1.878899 0.93945-0.93945H159.706422l0.93945-0.939449H159.706422s0.93945-1.878899 2.818349-2.818349c0.93945-0.93945 0.93945-4.697248 0.939449-4.697248V629.431193l-0.939449 1.878899c-0.93945 0 0.93945-4.697248 0.939449-4.697248h-0.939449c0 0.93945 0.93945-4.697248 0.939449-3.757798 0 0.93945-0.93945 0.93945-0.939449 0.939449s0.93945-3.757798 0.939449-2.818348h-1.878899s1.878899-2.818349 0.93945-2.818349h-0.93945s0-2.818349 0.93945-2.818348c0.93945-0.93945 1.878899-2.818349 2.818348-2.818349 0.93945-0.93945 12.212844-1.878899 13.152294-1.878899 0.93945 0 8.455046-0.93945 9.394495-0.93945 0.93945 0 4.697248-1.878899 6.576147-1.878899 0.93945-0.93945 8.455046-1.878899 10.333945-1.878899h2.818349c3.757798 12.212844 7.515596 23.486239 12.212844 35.699083-3.757798 3.757798-8.455046 6.576147-10.333945 7.515596-3.757798 2.818349-6.576147 2.818349-9.394496 2.818349-1.878899 0-6.576147-0.93945-8.455046-0.93945-2.818349 0-12.212844-0.93945-12.212844-1.878899z m-12.212844-50.730275c0.93945-0.93945 5.636697-7.515596 6.576147-8.455046 0.93945-0.93945 6.576147-8.455046 8.455046-10.333945 1.878899-1.878899 8.455046-7.515596 9.394495-7.515596 0.93945 0 4.697248-2.818349 7.515597-3.757799 1.878899 11.273394 4.697248 23.486239 7.515596 34.759634-3.757798 0-12.212844 0.93945-13.152293 0.939449-0.93945 0-2.818349-0.93945-4.697248-0.939449h-15.031193c-0.93945 0-6.576147 0.93945-8.455046 0-1.878899-0.93945 0-3.757798 1.878899-4.697248z m249.893578-65.761468c22.546789-8.455046 45.093578-16.910092 66.700918-29.122936 1.878899-0.93945 4.697248-2.818349 6.576147-3.757798 6.576147 13.152294 13.152294 26.304587 19.72844 38.517431 17.849541 34.759633 36.638532 68.579817 55.427523 102.4-41.33578 21.607339-84.550459 37.577982-129.644037 46.972477-15.031193-16.910092-29.122936-35.699083-41.33578-54.488073-16.910092-26.304587-31.941284-54.488073-43.214679-84.550459 21.607339-2.818349 43.214679-9.394495 65.761468-15.970642z m49.790826-116.491743c-20.66789-36.638532-42.275229-73.277064-64.822018-108.976147 20.66789-10.333945 43.214679-18.788991 66.700917-23.486239 3.757798 1.878899 6.576147 0 14.091743-2.818348 9.394495-1.878899 18.788991-1.878899 28.183486-2.818349 39.456881 25.365138 72.337615 59.185321 99.581652 96.763303 1.878899 2.818349 3.757798 4.697248 4.697248 7.515596-8.455046 8.455046-16.910092 15.970642-25.365138 23.486239-29.122936 24.425688-60.124771 46.972477-93.005505 65.761468-9.394495-18.788991-19.72844-36.638532-30.062385-55.427523z m-59.185321-176.616514c3.757798-12.212844 13.152294-17.849541 13.152293-17.849541s15.970642 5.636697 24.425689 14.091743c8.455046 7.515596 16.910092 25.365138 19.72844 32.880734 0 0-0.93945 0-0.93945 0.939449-10.333945 5.636697-25.365138 11.273394-46.033027 21.60734v-0.93945c-0.93945-2.818349-6.576147-4.697248-11.273395-9.394495-4.697248-5.636697-1.878899-30.062385 0.93945-41.33578z m56.366972-33.820183c0.93945-3.757798 20.66789-7.515596 33.820184-11.273395 12.212844-4.697248 29.122936-22.546789 29.122936-22.546789s3.757798 2.818349 5.636697 10.333945c1.878899 7.515596 6.576147 5.636697 13.152293 10.333945 5.636697 4.697248 2.818349 6.576147 4.697248 15.970642s4.697248 19.72844 6.576147 29.122936c1.878899 9.394495 0.93945 4.697248 0 9.394495 0 0.93945 0 0.93945-0.93945 1.878899-7.515596 0.93945-10.333945 2.818349-5.636697 5.636698-13.152294-1.878899-29.122936-3.757798-42.275229-2.818349-11.273394 0-20.66789 1.878899-23.486239 2.818349-2.818349-1.878899-5.636697-4.697248-8.455046-6.576147-10.333945-13.152294-13.152294-38.517431-12.212844-42.275229z m117.431193 5.636697c0.93945 3.757798 0 3.757798-0.939449 6.576147-0.93945 2.818349-2.818349 4.697248-2.818349 5.636697l-3.757798-21.60734c0.93945 0 6.576147 5.636697 7.515596 9.394496z m86.429358 113.673394c-12.212844 15.970642-26.304587 31.001835-40.39633 45.093578-1.878899-1.878899-2.818349-3.757798-4.697248-5.636697-30.062385-36.638532-67.640367-68.579817-110.855046-86.429358 4.697248 0 8.455046-0.93945 13.152294-0.939449 55.427523 0.93945 103.33945 17.849541 142.79633 47.911926z m-6.576147-53.548624z m-72.337615 380.477065c38.517431-22.546789 74.216514-49.790826 104.278899-82.67156v0.93945c3.757798 23.486239 5.636697 46.972477 4.697248 71.398165-1.878899 23.486239-5.636697 47.911927-15.031192 69.519266l-8.455046 16.910091c-12.212844 9.394495-25.365138 17.849541-39.456881 25.365138-14.091743-33.820183-32.880734-73.277064-46.033028-101.46055z m-61.06422-123.06789c-6.576147-13.152294-13.152294-25.365138-20.66789-38.517431 33.820183-20.66789 64.822018-44.154128 93.005505-72.337615 7.515596-7.515596 15.031193-15.970642 22.546789-23.486239 8.455046 13.152294 16.910092 27.244037 24.425688 41.33578 11.273394 21.607339 20.66789 43.214679 28.183486 65.761468 5.636697 15.031193 9.394495 31.001835 13.152294 46.972477-31.941284 33.820183-69.519266 62.00367-109.915597 84.550459-15.970642-34.759633-32.880734-69.519266-50.730275-104.278899z m36.638532 244.25688c-24.425688-4.697248-46.972477-15.970642-67.640367-30.062385-16.910092-11.273394-32.880734-24.425688-47.911926-39.456881 44.154128-7.515596 86.429358-22.546789 125.886238-43.214678 15.031193 27.244037 35.699083 64.822018 54.488074 95.823853-16.910092 8.455046-33.820183 15.031193-52.609175 19.72844-3.757798-0.93945-7.515596-1.878899-12.212844-2.818349z m203.860551-238.620183c0 69.519266-28.183486 130.583486-74.216514 175.677064 10.333945-20.66789 16.910092-44.154128 19.72844-66.700917 3.757798-31.001835 1.878899-62.00367-3.757798-93.005505 17.849541-21.607339 32.880734-46.033028 45.093578-71.398165 1.878899-3.757798 3.757798-7.515596 4.697248-11.273394 5.636697 20.66789 8.455046 43.214679 8.455046 66.700917z m-12.212844-79.853211c-13.152294 27.244037-31.001835 52.609174-50.730275 76.095413-2.818349-12.212844-6.576147-24.425688-10.333945-36.638532-14.091743-41.33578-33.820183-79.853211-60.124771-113.673395 13.152294-15.970642 25.365138-33.820183 36.638532-51.669725 40.39633 30.062385 69.519266 74.216514 84.550459 125.886239z m3.757798-104.278899c0 0.93945 0.93945 1.878899 1.878899 0.939449 1.878899-0.93945 1.878899-2.818349 1.878899-2.818348s9.394495 8.455046 10.333945 15.031192c0.93945 6.576147 0.93945 6.576147 6.576147 14.091744s11.273394 15.970642 11.273394 15.970642-2.818349 3.757798-3.757798 9.394495c-0.93945 5.636697 2.818349 11.273394 1.878899 12.212844 0 0-0.93945 0-0.939449 0.93945 0-0.93945-0.93945-0.93945-0.93945-1.878899-7.515596-15.970642-16.910092-31.001835-26.304587-45.093578 0.93945 0 1.878899-0.93945 1.878899-0.93945s0.93945 1.878899 2.818349 1.878899c0.93945-0.93945-5.636697-15.970642-6.576147-19.72844zM582.458716 920.66055c0 3.757798 0 5.636697 0.939449 6.576147h-2.818348c-0.93945-0.93945-0.93945-1.878899-1.8789-2.818348 1.878899-2.818349 1.878899-4.697248 1.8789-4.697248 0-0.93945-0.93945-1.878899-0.93945-2.818349-1.878899-0.93945-3.757798-1.878899-5.636697-1.878899l-1.878899-1.878899c-0.93945-1.878899-1.878899-1.878899-2.818349-1.878899h-0.93945-0.939449c0.93945-1.878899 2.818349-4.697248 4.697248-9.394495 1.878899-3.757798 3.757798-6.576147 4.697247-9.394496l5.636698 21.60734c-0.93945 0.93945 0 2.818349 0 6.576146z m-15.970643-15.970642h-9.394495c-0.93945 0-1.878899 0.93945-1.878899 0.93945-0.93945-0.93945-1.878899-0.93945-1.878899-0.93945 0.93945-0.93945 1.878899-2.818349 1.878899-3.757798h5.636697c0-0.93945-0.93945-1.878899-1.878899-2.818349 4.697248-1.878899 6.576147-3.757798 6.576147-5.636697 0 0 0-0.93945-0.93945-0.939449 1.878899 0 4.697248-0.93945 7.515597-0.93945-0.93945 3.757798-2.818349 8.455046-5.636698 14.091743z m-5.636697 8.455046h-3.757798c0.93945-1.878899 1.878899-2.818349 2.818349-3.757798l-0.93945-0.93945s-0.93945 0-0.939449-0.939449h3.757798c0.93945 0 1.878899-0.93945 2.818348-0.93945-1.878899 4.697248-3.757798 6.576147-3.757798 6.576147z m-6.576147-7.515596c0.93945 0 1.878899-0.93945 1.878899-0.93945 0.93945 0 1.878899 0 2.818349 0.93945-0.93945 0.93945-1.878899 0.93945-1.878899 0.939449 0 0.93945-0.93945 0-2.818349-0.939449z m41.33578 11.273394c2.818349-0.93945 4.697248-1.878899 3.757798-3.757798v-0.939449c3.757798 2.818349 6.576147 4.697248 8.455046 6.576146l-2.818348 0.93945c-0.93945-0.93945-1.878899-0.93945-2.818349-0.93945-0.93945 0-0.93945 0-1.878899 0.93945-0.93945 0-0.93945 0.93945-1.878899 0.939449h-3.757798v-1.878899l0.939449-1.878899z m1.878899-46.972477z m0.93945 28.183486l0.939449-0.939449h1.878899c0.93945 0 1.878899-0.93945 1.8789-1.878899s-1.878899-2.818349-3.757799-3.757798c2.818349 0 4.697248 0 4.697248 1.878899s0 2.818349-0.939449 3.757798l-2.818349 2.818349c-0.93945 0-1.878899-0.93945-1.878899-1.8789-0.93945 0.93945 0 0 0 0z m6.576147-26.304587c-2.818349 0.93945-3.757798 1.878899-4.697248 2.818349v-3.757798c1.878899 0 2.818349 0 4.697248 0.939449z m4.697247 0l-3.757798 5.636698v-1.8789c0-1.878899-0.93945-2.818349-1.878899-3.757798h5.636697z m2.818349 17.849542v1.878899c-4.697248-1.878899-8.455046-3.757798-11.273395-4.697248 0.93945-0.93945 0.93945-1.878899 0.93945-1.878899 1.878899 0 2.818349 0 3.757798 0.939449 0 0.93945 0 0.93945 0.93945 0.93945h0.939449v0.93945h1.878899s0 0.93945-0.939449 1.878899v1.878899l3.757798-1.878899z m-6.576147 6.576146v-2.818348c1.878899 0.93945 2.818349 0.93945 4.697248 0.939449 0 1.878899 0.93945 3.757798 0.939449 5.636698 0 0-0.93945 0-1.878899-0.93945 0 0.93945 0 0.93945-0.939449 1.878899 0 0.93945 0 1.878899-0.93945 1.878899h-0.939449c-0.93945-2.818349-0.93945-5.636697-0.93945-6.576147z m-4.697248 7.515597l-0.939449-3.757798 0.939449-0.93945s0.93945 0 0.93945-0.93945h0.93945v-0.939449s0-0.93945 0.939449-0.93945c0 0 0.93945 0.93945 0.93945 2.818349v5.636697c-0.93945 0-1.878899 0.93945-2.818349 0.93945v-0.93945l-0.93945-0.939449z m15.031193 8.455046s0-0.93945 0 0l7.515596 7.515596-4.697247 0.939449v-1.878899c-1.878899 0-3.757798 0-4.697248 0.93945-1.878899-2.818349-4.697248-4.697248-6.576147-6.576147 0 0 0-0.93945 0.93945-1.878899 0.93945 0.93945 1.878899 0.93945 1.878899 0.93945V911.266055v-0.939449 0.939449c0 0.93945 0.93945 1.878899 1.878899 1.878899l1.878899-1.878899c0.93945 0.93945 1.878899 0.93945 1.878899 0.93945z m7.515596 49.790825c-1.878899-0.93945-3.757798-1.878899-4.697247-0.939449h-4.697248s-0.93945 0-2.818349 0.939449c-0.93945 0.93945-1.878899 0.93945-2.818348 0.93945-0.93945 0-2.818349 0-4.697248-1.878899 0 0 0.93945 0 0.93945-0.93945l0.939449-0.939449-0.939449-0.93945c1.878899-0.93945 2.818349-0.93945 3.757798-1.878899 0.93945-1.878899 1.878899-2.818349 1.878899-3.757798 0.93945-0.93945 1.878899-1.878899 2.818348-1.878899h0.93945c0.93945 0 0.93945 0 0.93945-0.93945 5.636697 6.576147 8.455046 10.333945 8.455045 12.212844z m-5.636697 2.818349s0.93945 0.93945 0 0l-3.757798 1.878899c-0.93945-0.93945-1.878899-1.878899-3.757798-2.818349h9.394495c-0.93945-0.93945-1.878899 0-1.878899 0.93945z m-7.515596 4.697248c-0.93945-0.93945-1.878899-1.878899-2.818349-1.878899 0 0-0.93945 0-1.878899 0.939449h-1.878899s-0.93945 0-1.878899-0.939449-0.93945-0.93945-1.878899-0.93945v-1.878899-1.878899l11.273394 4.697248c0 1.878899-0.93945 1.878899-0.939449 1.878899z m15.970642-54.488074c1.878899 0 3.757798-0.93945 4.697248-0.939449v2.818348l-3.757798 0.93945c-0.93945 0-0.93945-0.93945-0.93945-2.818349z m5.636697 0c0.93945 0 1.878899 0.93945 2.818349 2.818349-0.93945 0-1.878899 0-3.757798-0.93945 0.93945 0 0.93945-0.93945 0.939449-1.878899z m0 48.851376c-3.757798 0-5.636697-1.878899-5.636697-3.757798v-1.878899c3.757798 1.878899 5.636697 3.757798 5.636697 5.636697z m-120.249541-86.429357c-0.93945-0.93945-0.93945-1.878899-1.878899-3.757799l2.818349-0.939449v1.878899c0 0.93945-0.93945 1.878899-0.93945 2.818349zM135.280734 418.994495c0.93945-5.636697 12.212844-5.636697 21.607339-0.939449-5.636697 2.818349-14.091743 0.93945-21.607339 0.939449z m-8.455046-5.636697c-6.576147-0.93945-5.636697-4.697248-11.273394-6.576147-9.394495-1.878899-14.091743 4.697248-19.728441 10.333945-1.878899-5.636697 5.636697-10.333945 4.697248-15.970642 3.757798 0.93945 1.878899 3.757798 4.697248 5.636697 2.818349 0-0.93945-4.697248-1.878899-5.636697 6.576147-2.818349 12.212844 3.757798 15.970642-0.939449 1.878899 0.93945-0.93945 0.93945-0.93945 1.878899 1.878899 0 4.697248 0 4.697248-2.818349 10.333945 4.697248 15.970642 7.515596 23.486238 9.394495-5.636697 4.697248-15.970642-0.93945-19.72844 4.697248z m-15.031193 12.212844c-0.93945 0-3.757798-0.93945-4.697247-0.939449-4.697248 0.93945-1.878899 2.818349-7.515597-1.878899-1.878899-0.93945-3.757798-0.93945-4.697247-2.818349 4.697248-4.697248 9.394495-9.394495 15.031192-12.212844 7.515596 0.93945 7.515596 4.697248 15.031193 7.515596-2.818349 2.818349-7.515596 8.455046-13.152294 10.333945z m-6.576146 15.031193c-1.878899-0.93945-1.878899-2.818349-2.818349-3.757798 3.757798-3.757798 5.636697-8.455046 12.212844-7.515597-2.818349 4.697248-6.576147 8.455046-9.394495 11.273395zM93.944954 437.783486c4.697248 1.878899 2.818349-3.757798 3.757798-5.636697 3.757798 2.818349 4.697248 7.515596 4.697248 12.212844-3.757798 0.93945-10.333945-2.818349-8.455046-6.576147zM86.429358 460.330275c1.878899-3.757798 1.878899-15.970642 13.152293-14.091743-3.757798 5.636697-7.515596 12.212844-13.152293 14.091743z m-2.818349-5.636697c-1.878899-7.515596 6.576147-8.455046 5.636697-15.031193 0.93945 0.93945 0.93945 2.818349 0.93945 3.757798 0.93945-0.93945 2.818349-2.818349 4.697248 0.93945-2.818349 3.757798-8.455046 4.697248-11.273395 10.333945z m22.546789-25.365138c-1.878899 3.757798-5.636697-0.93945-4.697248 4.697248-3.757798-2.818349-9.394495-4.697248-6.576146-10.333945 3.757798 0.93945 4.697248 2.818349 2.818348 5.636697 4.697248 2.818349 7.515596-2.818349 8.455046 0zM122.12844 396.447706c-4.697248 1.878899-10.333945 3.757798-17.849541 1.8789 3.757798-5.636697 13.152294-11.273394 17.849541-1.8789z m1.878899-18.78899c-1.878899-0.93945-3.757798-1.878899-5.636697-1.878899 0-3.757798 8.455046-1.878899 5.636697 1.878899z m3.757799 11.273394c1.878899 0.93945 4.697248 0.93945 5.636697 1.878899 3.757798 3.757798 5.636697 6.576147 6.576147 10.333945-12.212844-1.878899-24.425688-11.273394-21.60734-21.607339 5.636697-0.93945 6.576147 6.576147 9.394496 9.394495z m5.636697-55.427523c2.818349 10.333945 1.878899 23.486239-4.697248 31.941285 0 1.878899 3.757798 1.878899 0.93945 4.697247-3.757798-0.93945-0.93945-5.636697-0.93945-7.515596 0-2.818349-1.878899-2.818349-1.878899-5.636697 0-6.576147 4.697248-15.970642 6.576147-23.486239z m1.878899 27.244037c1.878899 3.757798 2.818349 9.394495 0.939449 12.212844l-1.878899-1.878899c0 3.757798 3.757798 6.576147 0.93945 13.152293-2.818349-4.697248-7.515596-9.394495-3.757798-15.970642 3.757798 3.757798-0.93945-4.697248 3.757798-7.515596z m1.878899-30.062385c4.697248 2.818349 2.818349 6.576147 0.93945 12.212844-3.757798-3.757798-0.93945-8.455046-0.93945-12.212844z m17.849541 76.095412c-2.818349 3.757798-6.576147-3.757798-8.455046-5.636697 2.818349-1.878899 3.757798 4.697248 8.455046 5.636697z m227.346789-177.555963z m-3.757798-17.849541c-0.93945-4.697248-3.757798-19.72844-3.757798-26.304587 0.93945-5.636697 0.93945-15.970642 0.93945-15.970643s1.878899 2.818349 3.757798 7.515597c0.93945 5.636697 2.818349 15.031193 1.878899 23.486238-0.93945 9.394495-0.93945 14.091743 0.939449 24.425688 0 0.93945 0 2.818349 0.93945 3.757799-0.93945-1.878899-3.757798-12.212844-4.697248-16.910092z m571.185321 310.018348c-5.636697 0-20.66789-0.93945-20.66789-0.939449 0-12.212844 22.546789-5.636697 28.183487-8.455046 7.515596-4.697248 4.697248-13.152294-2.818349-13.152294-45.093578-1.878899-44.154128 20.66789-46.033028 21.60734-7.515596 0.93945-39.456881 0-39.45688 0-0.93945-2.818349 0.93945-4.697248 0.939449-5.636697 1.878899-6.576147 32.880734-13.152294 31.001835-23.486239-0.93945-3.757798-4.697248-4.697248-8.455046-4.697248-24.425688 1.878899-42.275229 23.486239-43.214679 27.244037-1.878899 3.757798-0.93945 7.515596-3.757798 10.333945h-34.759633c-0.93945-31.941284-6.576147-64.822018-17.849541-94.884404h0.939449c0.93945 0.93945 1.878899 3.757798 2.818349 5.636698 0.93945 1.878899 5.636697 4.697248 4.697248-1.878899-0.93945-7.515596-1.878899-8.455046-1.878899-11.273395 0-3.757798 2.818349-1.878899 2.818348-1.878899s0-4.697248 4.697248-5.636697c8.455046 8.455046 17.849541 17.849541 24.425688 27.244036 3.757798 4.697248 7.515596 7.515596 11.273395 13.152294 3.757798 4.697248 10.333945 5.636697 13.152293 10.333945 0.93945 1.878899 6.576147 11.273394 8.455046 3.757798 1.878899-4.697248-3.757798-8.455046-5.636697-11.273394-1.878899-2.818349-0.93945-3.757798-1.878899-7.515597s-2.818349-5.636697-4.697248-7.515596c-1.878899-1.878899 0.93945-1.878899 0-5.636697l1.878899-1.878899c1.878899 1.878899 3.757798 1.878899 7.515596 2.818348v1.878899c5.636697-2.818349 10.333945 0 12.212844 4.697248 0.93945-0.93945 1.878899-0.93945 3.757799-2.818349 0 0.93945 0.93945 0.93945 0.939449 1.878899 0.93945-0.93945 1.878899-1.878899 1.878899-2.818348h0.93945v2.818348l2.818348-2.818348 0.93945 0.939449 3.757798-3.757798c0.93945 6.576147 8.455046 6.576147 12.212844 0l0.93945-0.939449c3.757798-6.576147-8.455046-5.636697-14.091743-6.576147-8.455046-2.818349-14.091743-4.697248-19.728441-10.333945-2.818349-2.818349-17.849541-16.910092-21.607339-14.091743-4.697248-4.697248-3.757798-3.757798-7.515597-10.333945l0.93945 0.939449c-1.878899-1.878899-6.576147-15.970642-9.394496-22.546789-4.697248-9.394495-6.576147-18.788991-24.425688-37.577981-13.152294-13.152294-11.273394-11.273394-24.425688-21.60734-2.818349-3.757798-7.515596-8.455046-8.455046-10.333945-0.93945 0.93945-1.878899 2.818349-2.818348 3.757799-0.93945 0-0.93945-0.93945-1.878899-0.93945-2.818349-2.818349-4.697248-7.515596-6.576147-8.455046-0.93945 0.93945-1.878899 1.878899-3.757798 2.818349-0.93945-0.93945-2.818349-0.93945-3.757798-1.878899-1.878899-1.878899-2.818349-4.697248-4.697248-6.576147-0.93945 0.93945-2.818349 1.878899-3.757798 2.818349-1.878899-1.878899-2.818349-5.636697-4.697248-7.515597-1.878899 0.93945-2.818349 2.818349-4.697248 3.757798-4.697248-2.818349-2.818349-5.636697-1.878899-10.333945-1.878899 0-4.697248 1.878899-6.576147 0.93945 0-1.878899 0.93945-5.636697 0-6.576147-0.93945-0.93945-2.818349-0.93945-4.697247-0.939449 0-0.93945-0.93945-1.878899-0.93945-1.878899 2.818349-1.878899 6.576147 0 9.394496 0 3.757798 0 6.576147-0.93945 9.394495-2.818349 4.697248-3.757798 6.576147-8.455046 7.515596-13.152294 0.93945-0.93945 0.93945-1.878899 1.878899-2.818348v-2.818349c0-0.93945 0-0.93945-0.939449-1.878899 0 0.93945-0.93945 2.818349-1.878899 3.757798-0.93945 0.93945-1.878899 0.93945-2.818349 1.878899 0-0.93945-0.93945-0.93945-0.939449-1.878899-0.93945 0.93945-2.818349 3.757798-4.697248 4.697248h-0.93945c0-0.93945-0.93945-1.878899-0.939449-2.818349-2.818349 0-4.697248 2.818349-6.576147 3.757798-1.878899-0.93945 0.93945-2.818349 0.93945-4.697247-1.878899 0-2.818349 1.878899-4.697248 1.878899h-1.878899-0.93945s0-0.93945 0.93945-1.878899c-0.93945 0-2.818349 0-4.697248 0.939449-0.93945 0-1.878899 0-2.818348-0.939449-10.333945-0.93945-12.212844 7.515596-14.091744 15.970642-2.818349 10.333945 0.93945 18.788991 7.515597 25.365138 23.486239 21.607339 31.001835 14.091743 42.275229 32.880733 2.818349 5.636697-6.576147 4.697248-11.273394 8.455046-1.878899 1.878899 0 7.515596 1.878899 13.152294L732.770642 336.322936c-14.091743-16.910092-31.001835-33.820183-49.790825-48.851376-8.455046-6.576147-16.910092-12.212844-25.365138-17.849542 0.93945-1.878899 3.757798-2.818349 4.697248-3.757798l14.091743-11.273394c4.697248-3.757798 9.394495-7.515596 14.091743-12.212844 3.757798-2.818349 6.576147-7.515596 10.333945-10.333945 0.93945-0.93945 0.93945-1.878899 1.878899-2.818349 1.878899-2.818349 3.757798-4.697248 5.636697-7.515596 2.818349-3.757798 3.757798-6.576147 5.636697-10.333945 0.93945-3.757798 2.818349-6.576147 4.697248-10.333945 1.878899-5.636697 2.818349-11.273394 5.636697-15.970642-3.757798 3.757798-9.394495 5.636697-13.152293 9.394495-5.636697 3.757798-9.394495 9.394495-15.031193 14.091743-7.515596 7.515596-15.031193 15.031193-21.607339 23.486239-3.757798 4.697248-8.455046 9.394495-11.273395 14.091743 0 0.93945-0.93945 1.878899-0.939449 2.818348 0.93945-2.818349 1.878899-4.697248 1.878899-6.576146 1.878899-4.697248 10.333945-15.970642 13.152293-21.60734 4.697248-8.455046 10.333945-17.849541 12.212844-28.183486 3.757798 0 7.515596-2.818349 8.455046-6.576147 0.93945 0 3.757798 2.818349 3.757798 4.697248 0.93945 0 2.818349-0.93945 2.818349-1.878899 0.93945-0.93945 0.93945-2.818349 0.93945-3.757798 0-2.818349-1.878899-4.697248-2.818349-6.576147 0 0 0.93945-2.818349 3.757798-3.757798 0.93945-0.93945 2.818349-1.878899 4.697248-1.878899s2.818349 1.878899 4.697247 2.818348c0-4.697248-1.878899-10.333945-3.757798-13.152293-2.818349-3.757798-7.515596-3.757798-8.455046-4.697248-2.818349-0.93945-4.697248 0-6.576146 0.939449 0.93945-2.818349 1.878899-5.636697 1.878899-8.455045 0-1.878899 0-2.818349-0.93945-4.697248 0-1.878899-0.93945-2.818349-0.939449-4.697248-0.93945-3.757798-4.697248-0.93945-5.636698 0.93945-1.878899 1.878899-2.818349 7.515596-2.818348 9.394495v6.576147c-1.878899-0.93945-7.515596-3.757798-9.394496-3.757798-4.697248 0-7.515596 4.697248-9.394495 6.576147-1.878899 1.878899-1.878899 3.757798-2.818349 5.636697 0.93945 0 0.93945 0 1.878899-0.93945h2.818349c1.878899 0 3.757798 1.878899 4.697248 2.818349 0.93945 0.93945 2.818349 3.757798 2.818348 3.757798s-4.697248 1.878899-5.636697 2.818349c-0.93945 0.93945-2.818349 1.878899-3.757798 2.818348-0.93945 0.93945-0.93945 3.757798-0.93945 4.697248 0 0.93945 0.93945 3.757798 2.818349 3.757798 0.93945-1.878899 4.697248-4.697248 6.576147-5.636697v2.818349c0 0.93945 0.93945 2.818349 0.939449 3.757798 0.93945 0.93945 1.878899 1.878899 2.818349 1.878899 0.93945 0.93945 1.878899 1.878899 2.818349 1.878899 0-0.93945 0.93945-1.878899 1.878899-2.818349l2.818348-2.818348c-0.93945 5.636697-1.878899 10.333945-3.757798 15.031192-2.818349 8.455046-7.515596 15.031193-12.212844 22.546789-3.757798 5.636697-8.455046 12.212844-11.273394 18.788991-0.93945 1.878899-0.93945 2.818349-1.878899 4.697248 1.878899-10.333945 6.576147-19.72844 9.394495-30.062386 1.878899-7.515596 4.697248-15.970642 1.878899-23.486238-0.93945-3.757798-5.636697-4.697248-8.455046-6.576147 3.757798 5.636697-4.697248 15.970642-5.636697 20.66789-4.697248 17.849541-7.515596 36.638532-5.636697 55.427523v0.93945c-9.394495-5.636697-18.788991-10.333945-28.183487-14.091744 0.93945 5.636697-21.607339-0.93945-43.214678-3.757798h-0.93945c0-0.93945-0.93945-1.878899-0.93945-2.818348 1.878899 1.878899 2.818349 1.878899 7.515597 1.878899 4.697248 0.93945 4.697248-0.93945 5.636697-3.757798 0.93945-2.818349-0.93945-3.757798-0.93945-8.455046s3.757798-6.576147 8.455046-15.970643 2.818349-16.910092-0.939449-23.486238c-4.697248-6.576147-18.788991-23.486239-28.183486-41.33578-9.394495-17.849541 0.93945-18.788991 0-22.546789-0.93945-3.757798 1.878899-4.697248 3.757798-7.515596 1.878899-2.818349 0.93945 0.93945 3.757798-0.93945 2.818349-0.93945 2.818349-1.878899 6.576147 0 3.757798 1.878899 1.878899 0 7.515596-2.818348 5.636697-2.818349 1.878899-7.515596 1.878899-7.515597s4.697248 0 15.031193-1.878899c9.394495-0.93945 10.333945 0 15.970642 0.93945 5.636697 0.93945 4.697248 0.93945 2.818349-3.757798-0.93945-4.697248-6.576147-13.152294-6.576147-13.152294s2.818349 4.697248 7.515596 6.576147c3.757798 1.878899 6.576147 0 8.455046-1.878899 0 0 15.970642 5.636697 30.062385 5.636697 5.636697 0 17.849541-2.818349 24.425688-6.576147 4.697248-1.878899 3.757798-5.636697 1.878899-5.636697l-13.152293 2.818349c2.818349-1.878899 6.576147-3.757798 9.394495-6.576147 4.697248-3.757798 7.515596-8.455046 7.515597-10.333945-0.93945-2.818349-1.878899-1.878899-3.757799 0 3.757798-3.757798 7.515596-7.515596 9.394496-10.333945 5.636697-10.333945 0-29.122936-8.455046-37.577982-8.455046-7.515596-7.515596-14.091743-4.697248-15.970642 3.757798-0.93945 4.697248-0.93945 3.757798-3.757798-0.93945-2.818349-5.636697-3.757798-6.576146-6.576147-0.93945-2.818349-6.576147 4.697248-8.455046 15.031193-1.878899 9.394495 1.878899 15.031193 6.576147 21.607339 4.697248 6.576147 3.757798 10.333945 3.757798 15.031193s-3.757798 5.636697-7.515597 6.576147c-4.697248 0.93945-2.818349 1.878899-3.757798 4.697247-0.93945 2.818349-2.818349 1.878899-5.636697 0s-1.878899-1.878899-2.818349-0.939449c-0.93945 0.93945-2.818349 1.878899-4.697247 0s-2.818349 1.878899-3.757798 0.939449c-0.93945-0.93945-0.93945-0.93945-4.697248 0s-1.878899 0-3.757798-1.878899c-0.93945-2.818349-1.878899-0.93945-3.757799 0s-0.93945 0-1.878899-2.818348c0-2.818349-2.818349 0.93945-3.757798-0.93945 0-0.93945 0-0.93945-0.939449 0-0.93945 0-0.93945 0-1.878899-0.939449-0.93945-1.878899-0.93945-0.93945-0.93945-0.93945s-1.878899 0-1.878899-0.93945 0-0.93945-1.878899 0c-1.878899 0-2.818349-0.93945-17.849541-15.031192C601.247706 28.183486 582.458716 32.880734 565.548624 36.638532c-16.910092 4.697248-21.607339 3.757798-31.001835 1.878899s-19.72844 2.818349-34.759633 15.031193c-15.031193 13.152294-21.607339 14.091743-42.275229 18.788991s-26.304587 0.93945-33.820184 2.818348c0 0-10.333945 2.818349-21.607339 15.031193-12.212844 12.212844-28.183486 23.486239-31.001835 37.577982-0.93945 8.455046-5.636697 13.152294-6.576147 19.72844-1.878899 12.212844 0.93945 25.365138 1.878899 41.33578 0 11.273394 2.818349 16.910092 5.636697 29.122936s2.818349 19.72844 3.757799 25.365137c0.93945 4.697248 0 6.576147 0 9.394496 0 1.878899 1.878899 1.878899 2.818348 0-0.93945 6.576147-1.878899 15.970642-0.939449 21.607339 0 4.697248 1.878899 8.455046 1.878899 12.212844 0.93945 3.757798-2.818349 14.091743-1.878899 18.788991 0 0.93945 0.93945 0.93945 1.878899 0.939449-4.697248 2.818349-10.333945 5.636697-14.091743 9.394496-11.273394 7.515596-20.66789 15.031193-23.486239 18.788991-4.697248 6.576147 2.818349 0.93945 9.394495-2.818349 2.818349-1.878899 6.576147-3.757798 8.455046-4.697248 12.212844-8.455046 25.365138-15.970642 38.517432-23.486238 15.970642 39.456881 32.880734 78.913761 51.669724 116.491743 9.394495 18.788991 17.849541 38.517431 27.244037 57.306422-1.878899 0.93945-4.697248 2.818349-6.576147 3.757798-20.66789 10.333945-42.275229 20.66789-63.882569 28.183486-21.607339 8.455046-44.154128 14.091743-66.700917 19.728441-4.697248-13.152294-8.455046-26.304587-12.212844-40.396331-12.212844-49.790826-16.910092-103.33945-1.878899-155.009174-11.273394 24.425688-16.910092 50.730275-18.788991 77.974312-1.878899 27.244037 0 54.488073 5.636697 80.792661 2.818349 13.152294 5.636697 26.304587 9.394496 39.45688-22.546789 3.757798-46.033028 5.636697-69.519266 4.697248v-11.273394c0-26.304587 4.697248-51.669725 13.152293-76.095413 0.93945-6.576147 1.878899-12.212844 3.757798-18.788991-5.636697 10.333945-9.394495 19.72844-13.152293 28.183486 5.636697-24.425688 15.970642-46.972477 18.788991-56.366972 10.333945-24.425688 13.152294-30.062385 8.455045-29.122936-3.757798 1.878899-13.152294 11.273394-20.667889 19.72844-9.394495 13.152294-3.757798-8.455046-16.910092 14.091743 7.515596-16.910092 11.273394-24.425688 20.66789-40.39633-0.93945-1.878899-7.515596 10.333945-13.152294 22.546789-5.636697 11.273394-9.394495 22.546789-9.394495 15.031193 7.515596-15.970642 15.970642-33.820183 26.304587-49.790826-2.818349 1.878899-12.212844 15.031193-19.72844 28.183486s-12.212844 26.304587-13.152294 23.486239c1.878899-4.697248 7.515596-16.910092 14.091743-27.244037 6.576147-10.333945 13.152294-19.72844 12.212844-22.546789 0-0.93945-10.333945 15.031193-15.031193 23.486239 13.152294-26.304587 26.304587-44.154128 30.062386-52.609175 4.697248-7.515596-0.93945-5.636697-18.788991 15.031193 11.273394-15.970642 30.062385-34.759633 44.154128-48.851376-5.636697 4.697248-14.091743 12.212844-20.66789 18.788991 5.636697-6.576147 11.273394-12.212844 17.849542-17.849542l-5.636697 2.818349c-6.576147 5.636697-13.152294 11.273394-18.788991 17.849541 4.697248-5.636697 10.333945-11.273394 15.970642-16.910091-4.697248 2.818349-10.333945 6.576147-15.970642 11.273394-20.66789 18.788991-38.517431 39.456881-45.093578 52.609174-10.333945 17.849541-17.849541 36.638532-24.425688 55.427523-16.910092-3.757798-34.759633-6.576147-48.851377-15.970642-7.515596-4.697248-11.273394-12.212844-19.72844-14.091743-6.576147-12.212844-1.878899-29.122936-2.818349-43.214679 2.818349-2.818349 2.818349-2.818349 4.697248-5.636697-0.93945-6.576147 0-10.333945-2.818348-14.091743 0.93945-0.93945 0-1.878899 0-2.818349 1.878899-7.515596 6.576147-10.333945 7.515596-17.849541-0.93945-0.93945-1.878899-5.636697-2.818349-3.757798 0.93945-0.93945 0.93945-10.333945 2.818349-11.273395-0.93945-2.818349-5.636697-2.818349-2.818349-6.576147 2.818349 0.93945 1.878899 1.878899 0.93945 3.757799 6.576147 0-1.878899-5.636697 4.697248-4.697248 0.93945-2.818349-3.757798-1.878899-3.757799 0-2.818349-2.818349 5.636697-6.576147 2.818349-10.333945-4.697248 4.697248-14.091743-0.93945-14.091743 8.455046-2.818349-3.757798-8.455046 5.636697-13.152294-0.93945 0 4.697248 0.93945 4.697248-1.878899 8.455046-10.333945 7.515596-14.091743 30.062385-26.304587 34.759633-2.818349 7.515596-6.576147 13.152294-10.333945 17.849541 2.818349 12.212844-13.152294 27.244037-16.910092 43.214679 0 1.878899 0.93945 4.697248 0.93945 5.636698-3.757798 10.333945-10.333945 20.66789-12.212844 30.062385-0.93945 4.697248 0.93945 10.333945 0.939449 16.910092 0 1.878899-1.878899 3.757798-1.878899 4.697247 0 4.697248 0.93945 9.394495 0 14.091743 0 0.93945-2.818349 2.818349-2.818348 4.697248-0.93945 8.455046 1.878899 17.849541-0.93945 25.365138 0 10.333945-1.878899 12.212844-1.878899 13.152293-0.93945 6.576147 1.878899 15.031193-0.939449 20.66789 6.576147 3.757798 6.576147-10.333945 10.333944-1.878899 0-8.455046 3.757798-7.515596 9.394496-9.394495-0.93945-3.757798 3.757798-9.394495 1.878899-13.152294 6.576147-2.818349 7.515596-14.091743 15.031193-15.031192 5.636697 0-0.93945 4.697248 1.878899 5.636697 3.757798-0.93945 0-6.576147-2.818349-7.515597 2.818349-8.455046 8.455046-13.152294 14.091743-19.72844 5.636697-6.576147 8.455046-11.273394 14.091743-16.910092 6.576147-6.576147 7.515596-7.515596 15.031193-12.212844 9.394495-4.697248 13.152294-2.818349 26.304587-2.818348 4.697248 0 10.333945-1.878899 14.091743-1.878899 13.152294 0.93945 26.304587 8.455046 41.33578 15.031192-9.394495 34.759633-14.091743 72.337615-11.273394 108.036697 0 5.636697 0.93945 11.273394 1.878899 16.910092-2.818349 1.878899-10.333945 6.576147-11.273395 7.515597-1.878899 0.93945-5.636697 3.757798-6.576147 3.757798-0.93945 0-1.878899 0.93945-3.757798 0.939449-1.878899 0.93945-7.515596 6.576147-8.455046 7.515597-0.93945 0.93945-6.576147 6.576147-8.455046 7.515596-1.878899 0.93945-2.818349 2.818349-2.818348 2.818349V591.853211s-0.93945 0.93945-0.93945 0v-0.93945s-0.93945 0.93945-0.939449 0v-0.939449l-0.93945 0.939449v-0.939449l-0.939449 0.939449v-0.939449l-0.93945 0.939449v-1.878899 0.93945-0.93945l-0.939449 0.93945v-1.878899l-0.93945 0.939449v-1.878899l-0.939449 0.93945c0 0.93945-0.93945 0-0.93945-0.93945v-0.939449c0 0.93945-0.93945 0.93945-1.878899 1.878899 0 0-0.93945 0 0-0.93945v-0.939449s-0.93945 0.93945-0.93945 0v-1.878899c0 0.93945-0.93945 1.878899-1.878899 1.878899 0 0 0-0.93945-0.939449-0.93945 0 0-0.93945 0-0.93945 0.93945l0.93945-0.93945c0.93945 0 0.93945-1.878899 0.939449-1.878899s-1.878899 0.93945-2.818348 1.878899c-0.93945 0-1.878899 0.93945-0.93945 0 1.878899-1.878899 1.878899-2.818349 1.878899-1.878899 0 0-1.878899 0.93945-0.939449 0.93945s0-0.93945 0 0h-0.93945l1.878899-0.93945s-0.93945 0.93945-1.878899 0.93945-1.878899 0.93945-1.878899 0.939449h0.93945-0.93945 0.93945H124.946789h0.93945H123.06789h7.515596-1.878899 1.878899-3.757798s0.93945-0.93945 0.93945 0h-4.697248s-17.849541-8.455046-30.062385-8.455046h-2.818349-0.93945c0-0.93945-0.93945-8.455046-0.939449-8.455046 0.93945-2.818349 0-3.757798 0-4.697247l-0.93945-0.93945c0-2.818349-1.878899-1.878899-1.878899-1.878899-0.93945 0-0.93945 0.93945-0.939449 0.93945 0-0.93945-0.93945 0-1.878899 0l-1.878899 1.878899c-0.93945 0.93945-1.878899 3.757798-3.757799 4.697247-0.93945 0.93945-2.818349 7.515596-4.697247 5.636698-1.878899-0.93945-7.515596-0.93945-9.394496-1.878899h-0.939449l0.939449 0.939449c0.93945 0 3.757798 1.878899 4.697248 2.818349l2.818349 2.818348v0.93945l-8.455046 0.93945c-0.93945 0-0.93945 1.878899-0.93945 1.878899h0.93945s8.455046 1.878899 9.394495 1.878899c0.93945 0.93945 2.818349 0.93945 3.757798 1.878899 0.93945 0 2.818349 0.93945 6.576147 0.939449h6.576147s1.878899 0 1.878899 0.93945v-0.93945c1.878899-5.636697 3.757798-4.697248 3.757798-4.697247v-0.93945h0.93945l0.939449 0.93945v-0.93945h0.93945c0 0.93945 0.93945 0.93945 0.939449 0.93945v-0.93945h0.93945c5.636697 1.878899 10.333945 3.757798 13.152293 4.697248 0.93945 0.93945 3.757798 2.818349 3.757799 3.757798v0.939449l0.939449-0.939449s0.93945 1.878899 0 2.818349l0.93945-0.93945c0 0.93945 0.93945 1.878899 0 2.818349 0 0 0.93945-0.93945 0.939449 0v1.878899c0 0.93945 0 1.878899-0.939449 2.818348l0.939449-1.878899v3.757798c-0.93945 0.93945-0.93945 2.818349 0 3.757799 0 0 0-0.93945 0.93945-0.93945v4.697248c0 0.93945 0 2.818349 0.939449 3.757798 0 0.93945 0 6.576147 0.93945 8.455046 0 0 0.93945 10.333945 0.939449 11.273394v6.576147l0.93945 2.818349s1.878899 12.212844 2.818349 12.212844c0 0 0 0.93945 0.939449 1.878899v2.818348c0 0.93945 0.93945 2.818349 0.93945 2.818349s-0.93945 0.93945 0 2.818349c0 0 0-1.878899 0.939449-1.878899s0 2.818349 0 3.757798c0 0 0-1.878899 0.93945-1.878899s0.93945 0.93945 0.939449 1.878899c0.93945 0.93945 0.93945 1.878899 1.878899 2.818348 2.818349 3.757798 8.455046 12.212844 12.212844 14.091744 0 0 3.757798 1.878899 4.697248 1.878899 0.93945 0 1.878899 0.93945 2.818349 0.939449h9.394495c0.93945 0-0.93945 0-0.939449-0.939449s0.93945 0 0.939449-0.93945c0.93945 0 2.818349-0.93945 3.757798-0.939449h0.93945l-3.757798-0.93945h1.878899c0.93945 0 1.878899-0.93945 2.818348-0.93945 0.93945 0-0.93945-0.93945-1.878899-0.939449s0.93945-0.93945 1.878899 0l0.93945-0.93945c0.93945 0 1.878899 0.93945 1.878899 0v-0.939449h3.757798c0.93945 0 0-0.93945-0.939449-1.878899H175.677064c0.93945 0 1.878899 0.93945 2.818349 0.939449 0.93945 0 2.818349-0.93945 2.818348-0.939449s-1.878899 0-2.818348-0.93945l-2.818349 0.93945h1.878899c0.93945 0 2.818349 0 2.818349 0.939449V676.40367c0.93945 0 1.878899 0.93945 1.878899 0.939449 0.93945 0 0.93945-0.93945 1.878899-0.939449s0.93945 0 1.878899 0.939449h0.93945s0.93945 0.93945 1.878899 0.93945 0.93945 0.93945 1.878899 0.939449 0.93945 0.93945 1.878899 0.93945 1.878899 1.878899 2.818349 1.878899c0 0 1.878899 0.93945 2.818348 0.93945 0.93945 0 1.878899 1.878899 3.757798 1.878899 0.93945 0 19.72844-3.757798 25.365138-3.757799h5.636697c0.93945 0 0.93945-0.93945 1.878899-0.939449 0 0 1.878899-0.93945 2.818349-0.93945 7.515596 13.152294 16.910092 26.304587 26.304587 38.517432 0.93945-0.93945-1.878899-6.576147 5.636697 0.939449 12.212844 13.152294 22.546789 25.365138 33.820184 36.638532-0.93945 0-2.818349 0-3.757798 1.878899-1.878899 2.818349 2.818349 8.455046 4.697247 11.273395 1.878899 2.818349-1.878899 12.212844-3.757798 15.031192-0.93945 1.878899-2.818349 4.697248-3.757798 7.515597-0.93945 3.757798-2.818349 4.697248-7.515596 8.455046-5.636697 2.818349-6.576147 9.394495-6.576147 9.394495l-13.152294-7.515596s0-0.93945 0.93945-5.636698-0.93945-15.970642-2.818349-19.72844c-1.878899-2.818349-2.818349-2.818349-7.515596-7.515596-4.697248-5.636697-2.818349-5.636697-6.576147-9.394496l-5.636697-5.636697s-10.333945-6.576147-18.788991 0c-1.878899 1.878899-2.818349 2.818349-6.576147 5.636697-4.697248 2.818349-2.818349 0.93945-4.697247 1.878899-1.878899 0-1.878899 1.878899-3.757799 4.697248s-12.212844 7.515596-16.910091 9.394496c-4.697248 1.878899-11.273394 13.152294-14.091743 19.72844-2.818349 6.576147-2.818349 8.455046-2.818349 8.455046l3.757798-3.757798c1.878899-2.818349 11.273394-9.394495 11.273395-9.394496s7.515596-2.818349 10.333945-3.757798c2.818349 0 7.515596 0.93945 9.394495 0.93945 1.878899 0 1.878899 0.93945 1.878899 0.939449s-7.515596 4.697248-11.273394 7.515596c-3.757798 3.757798-1.878899 3.757798-1.8789 3.757799s8.455046-0.93945 11.273395-0.93945c2.818349 0 7.515596 3.757798 7.515596 3.757798s1.878899 1.878899 1.878899 2.818349v7.515596c0 0.93945-0.93945 2.818349-0.939449 4.697248s0 1.878899-0.93945 3.757798c-0.93945 0.93945-0.93945 2.818349-0.939449 5.636697v7.515597s-7.515596 1.878899-11.273395 3.757798c-3.757798 4.697248-3.757798 7.515596-4.697247 10.333945 0 3.757798 0.93945 5.636697 0.939449 5.636697s2.818349-3.757798 4.697248-6.576147c1.878899-2.818349 4.697248-3.757798 7.515596-4.697247h3.757798l2.818349 2.818348s-7.515596 0.93945-10.333945 4.697248c-2.818349 2.818349-2.818349 5.636697-1.878899 10.333945 0.93945 3.757798 0.93945 2.818349 0.939449 2.818348l1.878899-1.878899c0.93945-0.93945 0.93945 0 6.576147-0.939449 6.576147-0.93945 5.636697-1.878899 8.455046-3.757798 2.818349-1.878899-2.818349 6.576147-2.818348 12.212844 0 5.636697 1.878899 7.515596 4.697247 10.333945 2.818349 1.878899 9.394495 9.394495 10.333945 11.273394 1.878899 2.818349 3.757798 5.636697 9.394496 11.273395 5.636697 6.576147 9.394495 6.576147 14.091743 8.455046 4.697248 1.878899 14.091743 0.93945 22.546789 3.757798 8.455046 2.818349 19.72844 8.455046 19.72844 8.455046s14.091743 7.515596 24.425688 13.152293c10.333945 5.636697 9.394495 4.697248 13.152294 4.697248 4.697248 0 20.66789 1.878899 20.66789 1.878899s8.455046 1.878899 13.152293 3.757798c3.757798 1.878899 9.394495 3.757798 13.152294 3.757798 3.757798 0 8.455046-0.93945 10.333945-0.939449 1.878899 0 16.910092-3.757798 23.486238-5.636698 5.636697-1.878899 12.212844-8.455046 13.152294-8.455045 0.93945 0 2.818349-3.757798 4.697248-8.455046 1.878899-3.757798 7.515596-15.970642 7.515596-15.970642s1.878899-4.697248 3.757798-11.273395 0.93945-15.031193 1.878899-16.910092c0.93945-1.878899 1.878899-3.757798 6.576147-6.576147 4.697248-3.757798 3.757798-6.576147 4.697248-11.273394 0.93945-4.697248-0.93945-5.636697-0.93945-7.515596 0-1.878899 0.93945-2.818349 0.93945-4.697248s-0.93945 0-1.878899 0.939449-0.93945 0.93945-0.93945 1.8789c-0.93945 0.93945-0.93945 0-0.93945-1.8789s-0.93945 0-0.939449 1.8789c-0.93945 0.93945-0.93945 1.878899-0.93945 1.878899s-0.93945-0.93945-0.939449 0-0.93945 2.818349-1.878899 4.697247c-0.93945 2.818349-1.878899 2.818349-3.757798 6.576147-1.878899 3.757798-2.818349 5.636697-3.757799 10.333945-0.93945 3.757798 0 7.515596 0 12.212844 0 5.636697-4.697248 14.091743-4.697247 14.091743s0.93945-1.878899-1.878899-7.515596c-1.878899-6.576147-6.576147-20.66789-6.576147-20.66789s0-2.818349 1.878899-5.636697 6.576147-3.757798 11.273394-5.636697c4.697248-1.878899 3.757798-2.818349 3.757799-9.394496s0.93945-10.333945 2.818348-14.091743c2.818349-2.818349 9.394495-4.697248 10.333945-7.515596v-2.818349c25.365138 2.818349 50.730275 2.818349 76.095413-0.93945-0.93945-0.93945-1.878899-1.878899 2.818349-2.818348 3.757798-0.93945 8.455046-0.93945 13.152293-1.878899 1.878899 5.636697 2.818349 9.394495 3.757798 12.212844 0.93945 4.697248 1.878899 8.455046 2.818349 10.333945 0 1.878899 0.93945 3.757798 0.93945 5.636697h-0.93945c-0.93945 0-1.878899 0.93945-3.757798 0.93945s-1.878899 0.93945-2.818349 0.939449c-3.757798 0.93945-5.636697 3.757798-4.697247 9.394496-1.878899-0.93945-3.757798-1.878899-4.697248-0.93945-0.93945 0-1.878899 0.93945-1.878899 1.878899s-0.93945 1.878899-0.93945 2.818349h-1.878899s-1.878899 0.93945-3.757798 2.818348V868.990826l-3.757798 0.939449c-0.93945 0-1.878899 0.93945-2.818349 1.878899l-0.939449-1.878899v-0.939449c-4.697248 0.93945-6.576147 1.878899-7.515597 1.878899h-0.939449c0.93945-1.878899 0.93945-3.757798 0.939449-4.697248-5.636697 1.878899-8.455046 2.818349-7.515596 2.818349h-0.93945c-0.93945-0.93945-1.878899-0.93945-1.878899-0.93945l-3.757798 0.93945c-3.757798 0.93945-5.636697 2.818349-5.636697 5.636697-1.878899-0.93945-2.818349 0-2.818349 0-0.93945 0.93945-1.878899 3.757798-3.757798 6.576147l-0.939449-0.93945c-4.697248 1.878899-5.636697 5.636697-5.636698 9.394496 0.93945 2.818349 0.93945 3.757798 1.878899 4.697247l2.818349-0.939449c-0.93945 1.878899-0.93945 2.818349-0.939449 4.697247 0.93945 3.757798 2.818349 5.636697 6.576146 5.636698-1.878899 2.818349-1.878899 4.697248-1.878899 5.636697 0 1.878899 0.93945 1.878899 2.818349 1.878899 0 0 0.93945 0 0.939449-0.939449h1.878899V913.144954c0 0.93945 0.93945 1.878899 2.818349 0.93945 0.93945 0 0.93945 0 0.93945-0.93945V915.963303c0 0.93945 0.93945 1.878899 2.818348 3.757798 0.93945 0 0.93945 0 1.878899 0.939449 0-1.878899 0.93945-2.818349 0.93945-2.818348h0.939449s0.93945 0 0.93945-0.93945c0.93945 0.93945 0.93945 1.878899 1.878899 2.818349 1.878899-0.93945 2.818349-1.878899 3.757798-1.878899h0.93945c0.93945 2.818349 2.818349 3.757798 4.697247 4.697248 1.878899 0 1.878899 0.93945 1.8789 0.939449h0.939449s0.93945 0 1.878899 0.93945 1.878899 0.93945 2.818349 0.939449c-2.818349 1.878899-3.757798 3.757798-2.818349 6.576147 0 0.93945 0.93945 1.878899 1.878899 1.878899s1.878899 0.93945 2.818349 0.93945c-0.93945 1.878899-0.93945 2.818349-0.93945 3.757798l1.878899 1.878899c0.93945 0.93945 1.878899 0.93945 2.818349 0.939449 1.878899-0.93945 3.757798-1.878899 4.697248-3.757798 0.93945 0 1.878899-0.93945 2.818348-1.878899 0-0.93945 0.93945-1.878899 0.93945-3.757798 1.878899 0 3.757798 0.93945 4.697248 0 0.93945 0 2.818349-0.93945 3.757798-1.878899v-1.878899c0.93945 0 0.93945 0.93945 1.878899 1.878899s1.878899 0.93945 1.878899 0.939449 0.93945 0 0.939449-0.939449c0.93945 0 0.93945-0.93945 0.93945-0.93945 0.93945 0 1.878899 0 2.818349 0.93945v0.939449c-1.878899 0.93945-3.757798 0.93945-3.757799 1.878899l-0.939449 0.93945H563.669725c-0.93945 0-1.878899 0.93945-2.818349 1.878899 1.878899 0 2.818349 0 2.818349 0.93945-3.757798 1.878899-5.636697 4.697248-5.636697 6.576146v0.93945c0.93945 0 1.878899 0.93945 2.818348 0.93945-2.818349 3.757798-3.757798 6.576147-2.818348 8.455045 1.878899 0.93945 2.818349 0.93945 2.818348 1.878899 0.93945 0 0.93945 0.93945 0.93945 0.93945v3.757798c0 1.878899 1.878899 3.757798 4.697247 4.697248h2.818349v2.818349h1.878899c1.878899-0.93945 3.757798-0.93945 3.757798-0.93945s0.93945 0 0.93945 0.93945l0.939449 0.939449c0 0.93945-0.93945 0.93945-1.878899 1.878899 0.93945 1.878899 0.93945 2.818349 2.818349 2.818349-4.697248 4.697248-7.515596 8.455046-7.515596 10.333945 0 2.818349 0 4.697248 0.939449 5.636697-0.93945 3.757798-0.93945 7.515596-1.878899 9.394495 2.818349 0.93945 5.636697 0.93945 7.515596 0.93945-1.878899 0.93945-1.878899 2.818349-1.878899 4.697248s0.93945 1.878899 2.818349 1.878899h0.939449s0 0.93945 0.93945 0.939449h1.878899c-0.93945 1.878899-0.93945 3.757798 0 5.636698 0 0.93945 0.93945 1.878899 1.878899 2.818348l1.878899 1.878899s0.93945-0.93945 2.818349-0.939449c1.878899-0.93945 2.818349-0.93945 2.818348-0.93945 2.818349 4.697248 6.576147 6.576147 9.394496 6.576147 0.93945 0 0.93945-0.93945 1.878899-0.93945 0.93945-0.93945 0.93945-1.878899 1.878899-2.818348l2.818349 2.818348c0.93945 0.93945 1.878899 0.93945 2.818348 0.93945 0 0 0-0.93945 1.878899-1.878899 0.93945 0.93945 1.878899 0.93945 1.878899 0.939449 0.93945 0 1.878899-1.878899 3.757799-4.697247 1.878899 0.93945 2.818349 0.93945 3.757798 0.939449l2.818348-2.818348c1.878899 0.93945 3.757798 0.93945 2.818349 0.939449l0.93945 0.93945c1.878899-0.93945 3.757798-3.757798 3.757798-9.394496-1.878899 0-3.757798 0-4.697248-0.939449 0.93945-1.878899 0.93945-3.757798 0.93945-5.636698 0-0.93945-0.93945-1.878899-2.818349-0.939449 0 0-0.93945 0-1.878899 0.939449-0.93945 0-0.93945 0.93945-1.878899 0.93945s-1.878899 0-2.818349-0.93945c-0.93945-0.93945-1.878899-1.878899-1.878899-2.818348 0-0.93945 0.93945-2.818349 1.878899-4.697248 0.93945 0.93945 1.878899 0.93945 1.878899 0.93945v-0.93945-0.939449c1.878899 0 1.878899 0.93945 1.878899 0.939449 0.93945 0 1.878899 0 1.878899 0.93945 0.93945 0.93945 1.878899 0.93945 2.818349 0.939449 0 0 0.93945 0 0.93945-0.939449s0.93945-0.93945 0.939449-0.93945l0.93945 0.93945s0.93945-0.93945 0.939449-1.878899c0.93945 0 2.818349 0.93945 4.697248 0.939449 0.93945-0.93945 0.93945-1.878899 0.939449-2.818348H638.825688c0.93945-0.93945 1.878899-0.93945 2.818349-1.8789 3.757798-1.878899 7.515596-2.818349 10.333945-3.757798 0 0 0-0.93945 0.939449-0.939449h0.93945v-1.878899-0.93945c-1.878899 0-2.818349 0-3.757798-0.939449l5.636697-4.697248v-0.93945h-0.93945-0.939449c0.93945-1.878899 0.93945-2.818349 0.939449-3.757798h-0.939449c-4.697248 0.93945-7.515596 0.93945-10.333945 0.93945 1.878899-1.878899 2.818349-2.818349 2.818348-3.757798-2.818349 0.93945-4.697248 0.93945-6.576146 0.939449 0-1.878899 0.93945-2.818349 0.939449-3.757798-1.878899 0.93945-3.757798 0.93945-4.697248 0.939449h-1.878899v-0.939449s0-0.93945-0.939449-0.93945c-0.93945-1.878899-2.818349-2.818349-4.697248-4.697247s-4.697248-3.757798-6.576147-3.757799c-0.93945-1.878899-1.878899-3.757798-2.818348-4.697247 0.93945 0 0.93945 0 1.878899 0.939449 0.93945 0 1.878899 0.93945 1.878899 0.93945l0.939449-0.93945 0.93945 0.93945c0.93945 0 2.818349-0.93945 5.636697-1.878899l0.93945-0.93945c2.818349-1.878899 4.697248-2.818349 6.576147-3.757798 2.818349-1.878899 4.697248-3.757798 4.697247-5.636697h0.93945c1.878899 0 3.757798-0.93945 4.697247-1.878899v-3.757798c0.93945-0.93945 0.93945-1.878899 0.93945-2.818349 0 0-0.93945 0-0.93945-0.93945 3.757798-2.818349 4.697248-4.697248 4.697248-5.636697 0 0-0.93945-0.93945-2.818348-1.878899 1.878899-1.878899 2.818349-2.818349 2.818348-3.757798 0-0.93945-1.878899-0.93945-3.757798-0.93945H648.220183c-0.93945 0-2.818349 0-5.636697-0.939449s-4.697248-0.93945-6.576147-0.93945c0 0-0.93945 0-0.939449 0.93945 0 0 0-0.93945-0.93945-1.878899l-3.757798 0.939449c-2.818349-2.818349-4.697248-3.757798-4.697248-3.757798h-7.515596c-1.878899-1.878899-2.818349-3.757798-3.757798-4.697248l0.93945-0.939449c1.878899 0.93945 2.818349 2.818349 3.757798 2.818349 0-1.878899 0.93945-2.818349 0.939449-3.757799l0.93945 0.93945 0.939449 0.939449c0.93945-2.818349 1.878899-4.697248 1.878899-5.636697 0.93945 0.93945 0.93945 0.93945 0.93945 1.878899l7.515596 4.697248c0.93945 2.818349 1.878899 3.757798 3.757798 3.757798 0.93945 0 1.878899-0.93945 3.757799-2.818348 1.878899-1.878899 2.818349-2.818349 3.757798-2.818349h1.878899l-0.93945-4.697248h3.757798c0-1.878899 0-2.818349 0.93945-4.697248h0.93945c2.818349-0.93945 6.576147-2.818349 8.455045-7.515596h-5.636697c2.818349-2.818349 4.697248-3.757798 4.697248-4.697248H654.79633v-0.939449c2.818349-0.93945 3.757798-2.818349 3.757798-3.757798 1.878899-0.93945 2.818349-0.93945 3.757799-0.93945 0.93945-0.93945 1.878899-2.818349 2.818348-2.818348-1.878899-0.93945-3.757798-0.93945-6.576147-1.8789 0.93945-0.93945 0.93945-2.818349 0.93945-3.757798 0-0.93945-0.93945-0.93945-1.878899-0.939449h-2.818349c2.818349-1.878899 4.697248-3.757798 5.636698-4.697248h-4.697248l0.939449-1.878899c1.878899-0.93945 3.757798-2.818349 6.576147-4.697248h-3.757798c0.93945-2.818349 0.93945-4.697248 0.93945-5.636697h-1.8789c-1.878899 0-3.757798 0.93945-4.697247 0l0.939449-0.93945c-2.818349 1.878899-4.697248 2.818349-5.636697 3.757799H648.220183v-0.93945-0.939449c-0.93945 0-3.757798 0-6.576146 0.939449v-4.697248c-1.878899 0.93945-2.818349 1.878899-4.697248 2.818349-0.93945 0-0.93945-0.93945-0.93945-0.93945l-9.394495 4.697248h-0.93945v-0.939449c0-0.93945 0-0.93945-0.939449-1.878899l-3.757798 0.939449-3.757798 2.818349c-1.878899-0.93945-2.818349-0.93945-2.818349-0.93945-3.757798 0.93945-6.576147 4.697248-8.455046 11.273395-2.818349-0.93945-6.576147-1.878899-11.273394-2.818349h-3.757799c-0.93945 0-1.878899-0.93945-2.818348-1.878899 0.93945-1.878899 1.878899-2.818349 2.818348-4.697248-4.697248 0-7.515596-0.93945-10.333944-0.939449v-1.878899h-2.818349l-6.576147-31.941285c14.091743-2.818349 30.062385-7.515596 46.033028-13.152293l11.273394-5.636698c2.818349-1.878899 2.818349-2.818349 3.757798-3.757798 11.273394-4.697248 20.66789-9.394495 29.122936-14.091743-4.697248 6.576147 6.576147 9.394495 9.394495 15.970642h-0.939449c1.878899 0.93945 0.93945 1.878899-0.93945 1.878899 2.818349 2.818349 6.576147 2.818349 9.394496 6.576147H676.40367c0.93945 1.878899 6.576147 3.757798 3.757798 3.757798 0.93945 1.878899 5.636697 2.818349 1.878899 2.818349 0.93945 0.93945 1.878899 0.93945 3.757798 0.93945l-0.939449 0.939449c2.818349 1.878899 6.576147 1.878899 9.394495 3.757798-0.93945 0.93945-1.878899 0-2.818349 0.93945 2.818349 0.93945 5.636697 1.878899 8.455046 3.757798l-0.939449 0.939449c1.878899 0.93945 3.757798 1.878899 6.576147 1.8789-0.93945 0.93945-0.93945 0-0.93945 0.939449h3.757798c-0.93945 0.93945-2.818349 0-1.878899 1.878899 0.93945 0 3.757798-0.93945 2.818349 0 6.576147 0.93945 4.697248 0.93945 4.697247 1.878899 1.878899 0 2.818349-1.878899 4.697248 0-0.93945 0.93945-2.818349 1.878899-0.939449 2.818349l1.878899-1.878899c0 1.878899 0.93945 0 1.878899 0 0.93945 0.93945 0 1.878899 0 2.818348 0.93945-0.93945 0.93945-2.818349 1.878899-1.878899 0.93945 0 0 2.818349 0.939449 1.878899 0-0.93945 0.93945-1.878899 0.93945-2.818348 6.576147 1.878899 14.091743 4.697248 17.849541 9.394495v0.93945c-2.818349 1.878899-7.515596 7.515596-3.757798 13.152293 0 0.93945-0.93945 1.878899 0 1.878899 2.818349 1.878899 3.757798 2.818349 4.697248 5.636698-2.818349 1.878899 0 6.576147 0.939449 8.455046 3.757798 7.515596 9.394495 6.576147 15.031193 9.394495 7.515596 4.697248 11.273394 10.333945 15.031193 6.576147h0.939449c2.818349-0.93945 4.697248-1.878899 6.576147-3.757798 2.818349-1.878899 5.636697-5.636697 8.455046-9.394496l3.757798-5.636697c1.878899-2.818349 2.818349-7.515596 4.697248-9.394495 0 0-0.93945 0-0.93945-0.93945 0.93945 0 0.93945-0.93945 1.878899-1.878899 0.93945-8.455046 1.878899-17.849541 3.757798-26.304587-2.818349-4.697248-2.818349-14.091743 0.93945-22.546789 0.93945-2.818349 3.757798-5.636697 4.697248-8.455046 2.818349-5.636697 3.757798-11.273394 6.576146-15.970642 3.757798-4.697248 8.455046-6.576147 12.212844-11.273395-1.878899-1.878899 3.757798-3.757798 3.757799-5.636697-0.93945 0-0.93945 0.93945-1.8789 0 4.697248-2.818349 2.818349-6.576147 5.636698-9.394495-0.93945-0.93945-0.93945 0-1.878899 0 1.878899-3.757798 3.757798-9.394495 2.818348-12.212845 0 0 0 0.93945-0.939449 0.93945 0-4.697248-0.93945-4.697248-1.878899-8.455046 0 0 0 0.93945-0.93945 0 0-0.93945 0-3.757798-0.939449-3.757798 0 0.93945 0 1.878899-0.93945 2.818349-0.93945-6.576147-3.757798-15.031193-6.576147-20.66789 0 0.93945 0 2.818349-0.939449 2.818348 0-2.818349-0.93945-4.697248-0.93945-7.515596-0.93945 0.93945-0.93945 2.818349-1.878899 1.878899 0-1.878899-0.93945-3.757798-0.939449-4.697248-0.93945 0.93945 0 2.818349-0.93945 1.878899-0.93945-0.93945 0-2.818349-0.93945-2.818348 0 0-0.93945 1.878899-0.939449 0.939449s0-4.697248-1.878899-4.697247c0 0.93945 0 1.878899-0.93945 2.818348-0.93945-1.878899 0-4.697248-1.878899-4.697247 0 0.93945-0.93945 2.818349-1.878899 1.878899 0-0.93945 0-3.757798-0.939449-3.757798 0.93945 0 0 1.878899-0.93945 1.878899 0-0.93945 0-1.878899-0.939449-3.757799-0.93945 0.93945 0 1.878899-1.8789 3.757799 0-1.878899 0-2.818349-0.939449-4.697248-1.878899 0.93945-0.93945 2.818349-1.878899 2.818349-1.878899-2.818349-0.93945-7.515596-1.878899-9.394496 0 0 0 1.878899-0.93945 0.93945 0-1.878899 0-4.697248-0.939449-5.636698v0.93945c-0.93945-0.93945 0-3.757798-0.93945-3.757798v0.939449c-0.93945-1.878899-0.93945-6.576147-2.818349-5.636697-0.93945-1.878899-1.878899-6.576147-2.818348-5.636697 0-0.93945-0.93945-2.818349-0.93945-3.757798-0.93945 0 0 0.93945-0.939449 0.939449-0.93945-0.93945 0-4.697248-1.878899-4.697248 0 0 0 1.878899-0.93945 1.8789 0-0.93945 0-1.878899-0.939449-3.757799-0.93945 0.93945 0 2.818349-0.93945 1.878899 0-1.878899 0-1.878899-1.878899-0.939449 0 0 0-1.878899-0.93945-0.93945v0.93945c-0.93945 0-0.93945-0.93945-0.939449-0.93945-0.93945 0.93945 0 2.818349-0.93945 1.878899-0.93945-0.93945 0.93945-1.878899-0.939449-1.878899-1.878899-0.93945-3.757798-0.93945-5.636697 0 7.515596-15.031193 14.091743-31.001835 19.72844-46.972477 8.455046-26.304587 13.152294-54.488073 14.091743-81.73211 9.394495-0.93945 26.304587-1.878899 34.759633-1.878899 0.93945 17.849541 29.122936 25.365138 40.39633 24.425688 4.697248 0 16.910092 1.878899 19.728441-1.878899 4.697248-6.576147-3.757798-9.394495-8.455046-11.273394-4.697248-1.878899-31.001835-0.93945-26.304587-15.031193 0 0 32.880734 0.93945 36.638532 0.93945 0 0 12.212844 21.607339 28.183486 21.607339 5.636697 0 23.486239 0 21.607339-7.515596-0.93945-7.515596-34.759633-0.93945-31.001834-15.970643 0 0 58.245872 6.576147 58.245871-2.818348 0-7.515596-28.183486-9.394495-32.880734-9.394496z"  /><path d="M197.284404 286.53211c0 0.93945 0 2.818349 0.939449 3.757798 0.93945 0 1.878899-0.93945 1.878899-1.878899v0.93945c0 0.93945 0.93945 1.878899 0.93945 2.818348 0 0.93945 0 0.93945 0.939449 1.878899 0 0.93945 0 0.93945 0.93945 1.8789 0 0.93945-5.636697 12.212844 3.757798 21.607339 0.93945-1.878899 0.93945-3.757798 1.878899-4.697248 0-0.93945 0.93945-1.878899 0.93945-1.878899 0-0.93945 0.93945-1.878899 0.939449-2.818348 2.818349 1.878899 14.091743 6.576147 17.849542 7.515596 1.878899 0.93945 4.697248 1.878899 5.636697 2.818348 0.93945 0.93945 1.878899 1.878899 2.818348 1.8789 0.93945 0.93945 1.878899 1.878899 2.818349 1.878899v-1.878899c0-0.93945-2.818349-6.576147-4.697248-8.455046-12.212844-10.333945-17.849541-14.091743-20.66789-15.970642-1.878899-0.93945-2.818349-1.878899-3.757798-2.818349-0.93945-0.93945-1.878899-1.878899-1.878899-3.757798-0.93945-0.93945-0.93945-2.818349-0.939449-3.757798 0.93945-1.878899 1.878899 0 2.818348 0 0.93945-2.818349 0-4.697248-0.939449-6.576147-0.93945-2.818349-0.93945-5.636697-0.93945-8.455046 0.93945-3.757798 2.818349-6.576147 3.757798-9.394496 0.93945-1.878899 2.818349-3.757798 3.757798-5.636697 0-0.93945 1.878899-1.878899 2.818349-1.878899 0.93945 0 0.93945 1.878899 0.93945 1.878899 1.878899-1.878899 2.818349-2.818349 3.757798-5.636697 0-0.93945 0-1.878899 0.939449-3.757798 0-0.93945 0.93945-2.818349 1.878899-3.757798 1.878899-1.878899 2.818349-3.757798 4.697248-4.697248 3.757798-1.878899 6.576147-1.878899 10.333945-3.757798 3.757798-1.878899 8.455046-3.757798 12.212844-6.576147 1.878899-1.878899 3.757798-2.818349 4.697248 0 0.93945 2.818349 1.878899 5.636697 1.878899 8.455046 0 1.878899 0 4.697248-0.93945 7.515596 0 1.878899-0.93945 3.757798-0.939449 5.636697 4.697248-3.757798 9.394495-7.515596 11.273394-13.152293 1.878899-5.636697 4.697248-11.273394 5.636698-16.910092 0.93945-2.818349 7.515596-3.757798 10.333945-4.697248 5.636697-1.878899 10.333945-3.757798 11.273394-2.818348 3.757798 4.697248 3.757798 8.455046 2.818349 14.091743 4.697248 0.93945 8.455046 0 13.152293-1.878899 2.818349-0.93945 7.515596-2.818349 6.576147-5.636697 0-1.878899-0.93945-2.818349-1.878899-4.697248s0-3.757798-0.93945-5.636697c0-1.878899-1.878899-2.818349-1.878899-3.757799-0.93945-1.878899 0-3.757798 0-4.697247 0-3.757798 0-6.576147-2.818348-8.455046 0-3.757798-2.818349-4.697248-4.697248-6.576147-1.878899-1.878899-1.878899-3.757798-2.818349-5.636697-0.93945-1.878899-2.818349-2.818349-3.757798-4.697248-0.93945-1.878899-1.878899-4.697248-4.697247-4.697248-1.878899 0-3.757798 0.93945-5.636698 1.8789-1.878899 0.93945-3.757798 0.93945-5.636697 1.878899-0.93945 0.93945-4.697248 1.878899-4.697248 2.818348-0.93945 1.878899 1.878899 2.818349 2.818349 3.757798 2.818349 1.878899 4.697248 5.636697 5.636697 8.455046 0 0 0 1.878899-3.757798 3.757798-3.757798 0.93945-15.031193 1.878899-19.72844 4.697248-0.93945-0.93945-1.878899-0.93945-1.878899-1.878899-0.93945-0.93945-2.818349-0.93945-3.757799-1.878899-2.818349-0.93945-4.697248-1.878899-7.515596-2.818349-2.818349-0.93945-4.697248-0.93945-7.515596-0.939449-0.93945 0-2.818349 0.93945-3.757798 0.939449-0.93945 0-3.757798 0.93945-3.757799 1.878899 1.878899 0 2.818349 0.93945 4.697248 0.93945s2.818349 0.93945 4.697248 2.818349c0.93945 0.93945 3.757798 3.757798 2.818348 4.697247 0 1.878899-2.818349 2.818349-3.757798 2.818349-21.607339 11.273394-35.699083 23.486239-45.093578 47.911927-4.697248 12.212844-1.878899 26.304587-2.818348 28.183486-0.93945 0.93945-0.93945 3.757798 0 7.515596M142.79633 763.772477c0-0.93945-0.93945-2.818349-1.878899-3.757798 4.697248-5.636697-0.93945-16.910092 1.878899-25.365138 14.091743-2.818349 29.122936-2.818349 41.33578-11.273394-7.515596-1.878899-15.970642 2.818349-28.183486 2.818348-5.636697 0-11.273394-2.818349-16.910092-4.697247-5.636697-1.878899-8.455046-1.878899-13.152293-2.818349-13.152294-2.818349-27.244037-19.72844-33.820184-31.001835 1.878899 4.697248 6.576147 10.333945 9.394495 15.970642"  /></svg>